<svg xmlns="http://www.w3.org/2000/svg" width="118" height="55" viewBox="0 0 118 55" fill="none"><path d="M0 4C0 1.79086 1.79086 0 4 0H113.28C115.489 0 117.28 1.79086 117.28 4V51C117.28 53.2091 115.489 55 113.28 55H4C1.79086 55 0 53.2091 0 51V4Z" fill="white"></path><g clip-path="url(#clip0)"><path d="M29.8165 16.5475H26V13.023H37.8223V16.5475H34.0013L34.0031 26.8761H29.8192L29.8165 16.5475Z" fill="#004B7A"></path><path d="M41.304 22.3481C40.8445 22.5774 40.3271 22.7099 39.8125 22.8232C38.9701 23.0123 38.5295 23.2215 38.5268 23.8975C38.5241 24.3625 39.018 24.8284 39.705 24.833C40.5646 24.8376 41.2354 24.3205 41.2995 23.2763L41.304 22.3481ZM44.921 24.632C44.9156 25.3857 44.949 26.2362 45.3652 26.8766L41.5072 26.8538C41.4133 26.5825 41.3582 26.1759 41.3799 25.9064H41.3411C40.5339 26.8291 39.3674 27.0922 38.144 27.0858C36.2344 27.0739 34.6543 26.1376 34.6661 24.0309C34.685 20.8609 38.3525 20.9988 40.2829 20.6434C40.7993 20.5493 41.3158 20.3977 41.3185 19.76C41.323 19.0831 40.6946 18.8273 40.0834 18.8245C38.9186 18.8191 38.6848 19.4156 38.664 19.8404L35.1491 19.8203C35.2791 16.9993 37.9173 16.5507 40.2675 16.5644C45.004 16.5927 44.9553 18.5834 44.9427 20.5155L44.921 24.632Z" fill="#004B7A"></path><path d="M50.7513 19.409C49.3952 19.4008 49.0828 20.6944 49.0756 21.872C49.0684 23.0696 49.3672 24.3678 50.7224 24.376C52.0795 24.3833 52.3919 23.0906 52.3991 21.8911C52.4063 20.7136 52.1075 19.4154 50.7513 19.409ZM45.4785 12.9995H49.2598L49.2327 17.9702H49.2706C49.8485 17.1233 50.8633 16.6263 51.991 16.6327C55.3136 16.6528 56.1948 19.5177 56.1812 21.8765C56.1668 24.3888 54.7944 27.1825 51.9874 27.1669C50.1347 27.1551 49.5659 26.437 49.0918 25.7957H49.0539L49.0467 26.8746H45.4785V12.9995Z" fill="#004B7A"></path><path d="M61.4875 15.8066C60.0546 15.7975 59.8551 17.208 59.8488 18.2705C59.8434 19.3329 60.0257 20.7654 61.4577 20.7736C62.8897 20.7818 63.0901 19.353 63.0964 18.2887C63.1028 17.2263 62.9195 15.8148 61.4875 15.8066ZM61.4424 23.5563C57.7171 23.5344 56.0504 21.0312 56.0675 18.2485C56.0838 15.4649 57.7776 13.002 61.5029 13.0248C65.2281 13.0458 66.8948 15.5289 66.8786 18.3125C66.8614 21.0943 65.1676 23.5782 61.4424 23.5563Z" fill="#004B7A"></path><path d="M70.8733 15.8063C69.4414 15.7972 69.2418 17.2077 69.2364 18.2711C69.2292 19.3335 69.4125 20.7651 70.8453 20.7733C72.2764 20.7824 72.4768 19.3527 72.4832 18.2894C72.4886 17.2269 72.3053 15.8145 70.8733 15.8063ZM70.8282 23.5569C67.1038 23.5341 65.4371 21.0309 65.4542 18.2482C65.4696 15.4656 67.1643 13.0017 70.8887 13.0236C74.613 13.0456 76.2798 15.5286 76.2644 18.3113C76.2482 21.0958 74.5535 23.5779 70.8282 23.5569Z" fill="#004B7A"></path><path d="M76.6729 13.0243H80.3747V26.8747H76.6729V13.0243Z" fill="#004B7A"></path><path d="M87.267 22.3148C86.8075 22.5432 86.2901 22.6756 85.7755 22.788C84.9322 22.9771 84.4934 23.1872 84.4889 23.8633C84.4862 24.3273 84.98 24.7933 85.6671 24.7978C86.5276 24.8024 87.1984 24.2853 87.2616 23.2411L87.267 22.3148ZM90.9074 24.5959C90.9038 25.3496 90.8623 26.2339 91.2794 26.8743H87.4783C87.3853 26.603 87.3212 26.1407 87.3429 25.8712L87.304 25.8703C86.4969 26.793 85.3312 27.057 84.1078 27.0497C82.1974 27.0369 80.6173 26.1005 80.63 23.9939C80.6489 20.8239 84.3146 20.9627 86.2459 20.6073C86.7623 20.5132 87.2788 20.3616 87.2824 19.7239C87.2869 19.047 86.6585 18.7921 86.0463 18.7885C84.8807 18.7821 84.6487 19.3795 84.6279 19.8043L81.1112 19.7851C81.2421 16.9641 83.8812 16.5146 86.2305 16.5301C90.967 16.5566 90.9183 18.5482 90.9065 20.4804V24.5959H90.9074Z" fill="#004B7A"></path><path d="M57.4867 23.5579C60.1718 24.772 62.9581 25.311 65.9945 25.3284C69.1844 25.3476 71.6032 24.7382 74.6649 23.5579L74.6468 26.9015C71.9066 28.2764 68.9343 29.0182 65.9728 29.0009C62.745 28.9817 60.4192 28.3111 57.4668 26.9015L57.4867 23.5579Z" fill="#004B7A"></path></g><path d="M39.208 32.0964H43.1361C43.7679 32.0964 44.2833 32.1879 44.6823 32.3708C45.0814 32.5537 45.389 32.7823 45.6051 33.0566C45.8213 33.331 45.9667 33.6302 46.0416 33.9545C46.1247 34.2787 46.1663 34.578 46.1663 34.8523C46.1663 35.1266 46.1247 35.4259 46.0416 35.7501C45.9667 36.066 45.8213 36.3612 45.6051 36.6355C45.389 36.9098 45.0814 37.1385 44.6823 37.3214C44.2833 37.4959 43.7679 37.5832 43.1361 37.5832H40.7668V41H39.208V32.0964ZM40.7668 36.3113H43.0488C43.2233 36.3113 43.4021 36.2863 43.585 36.2365C43.7679 36.1866 43.9341 36.1076 44.0838 35.9995C44.2417 35.8831 44.3664 35.7335 44.4579 35.5506C44.5576 35.3594 44.6075 35.1225 44.6075 34.8398C44.6075 34.5489 44.566 34.3078 44.4828 34.1166C44.3997 33.9254 44.2875 33.7757 44.1461 33.6676C44.0048 33.5513 43.8427 33.4723 43.6598 33.4307C43.4769 33.3891 43.2815 33.3684 43.0737 33.3684H40.7668V36.3113Z" fill="#004B7A"></path><path d="M52.476 39.566C52.476 39.7405 52.4968 39.8652 52.5383 39.9401C52.5882 40.0149 52.6797 40.0523 52.8127 40.0523C52.8542 40.0523 52.9041 40.0523 52.9623 40.0523C53.0205 40.0523 53.087 40.044 53.1618 40.0273V41.0125C53.112 41.0291 53.0455 41.0457 52.9623 41.0624C52.8875 41.0873 52.8085 41.1081 52.7254 41.1247C52.6423 41.1413 52.5591 41.1538 52.476 41.1621C52.3929 41.1704 52.3222 41.1746 52.264 41.1746C51.973 41.1746 51.7319 41.1164 51.5407 41C51.3495 40.8836 51.2248 40.6799 51.1666 40.389C50.884 40.6633 50.5348 40.8628 50.1192 40.9875C49.7118 41.1122 49.3169 41.1746 48.9345 41.1746C48.6435 41.1746 48.365 41.133 48.099 41.0499C47.833 40.9751 47.5961 40.8628 47.3882 40.7132C47.1887 40.5552 47.0266 40.3599 46.9019 40.1271C46.7855 39.886 46.7273 39.6075 46.7273 39.2916C46.7273 38.8926 46.798 38.5684 46.9393 38.319C47.089 38.0696 47.2802 37.8742 47.5129 37.7329C47.754 37.5915 48.02 37.4918 48.311 37.4336C48.6103 37.3671 48.9096 37.3172 49.2088 37.2839C49.4666 37.2341 49.7118 37.2008 49.9446 37.1842C50.1774 37.1592 50.381 37.1218 50.5556 37.072C50.7385 37.0221 50.8798 36.9473 50.9796 36.8475C51.0877 36.7394 51.1417 36.5815 51.1417 36.3736C51.1417 36.1907 51.096 36.0411 51.0045 35.9247C50.9214 35.8083 50.8133 35.721 50.6803 35.6628C50.5556 35.5963 50.4143 35.5548 50.2563 35.5381C50.0984 35.5132 49.9487 35.5007 49.8074 35.5007C49.4084 35.5007 49.08 35.5839 48.8223 35.7501C48.5646 35.9164 48.4191 36.1741 48.3858 36.5233H46.9643C46.9892 36.1076 47.0889 35.7626 47.2635 35.4883C47.4381 35.2139 47.6584 34.9936 47.9244 34.8274C48.1988 34.6611 48.5064 34.5447 48.8472 34.4782C49.1881 34.4117 49.5372 34.3784 49.8947 34.3784C50.2106 34.3784 50.5224 34.4117 50.83 34.4782C51.1375 34.5447 51.4119 34.6528 51.653 34.8024C51.9024 34.9521 52.1019 35.1474 52.2515 35.3885C52.4012 35.6213 52.476 35.9081 52.476 36.2489V39.566ZM51.0544 37.7703C50.8383 37.9116 50.5722 37.9989 50.2563 38.0321C49.9404 38.0571 49.6245 38.0986 49.3086 38.1568C49.159 38.1818 49.0135 38.2192 48.8722 38.2691C48.7308 38.3106 48.6061 38.373 48.4981 38.4561C48.39 38.5309 48.3027 38.6349 48.2362 38.7679C48.178 38.8926 48.1489 39.0464 48.1489 39.2293C48.1489 39.3872 48.1946 39.5202 48.2861 39.6283C48.3775 39.7364 48.4856 39.8237 48.6103 39.8902C48.7433 39.9484 48.8846 39.9899 49.0343 40.0149C49.1922 40.0398 49.3336 40.0523 49.4583 40.0523C49.6162 40.0523 49.7866 40.0315 49.9695 39.9899C50.1524 39.9484 50.3228 39.8777 50.4808 39.7779C50.6471 39.6782 50.7842 39.5535 50.8923 39.4038C51.0004 39.2459 51.0544 39.0547 51.0544 38.8302V37.7703Z" fill="#004B7A"></path><path d="M53.7562 34.553H55.0905V35.8H55.1154C55.157 35.6254 55.236 35.455 55.3524 35.2887C55.4771 35.1225 55.6226 34.9728 55.7888 34.8398C55.9634 34.6985 56.1546 34.5863 56.3624 34.5031C56.5703 34.42 56.7823 34.3784 56.9984 34.3784C57.1647 34.3784 57.2769 34.3826 57.3351 34.3909C57.4016 34.3992 57.4681 34.4075 57.5346 34.4158V35.7875C57.4349 35.7709 57.3309 35.7584 57.2229 35.7501C57.1231 35.7335 57.0234 35.7252 56.9236 35.7252C56.6825 35.7252 56.4539 35.7751 56.2377 35.8748C56.0299 35.9663 55.847 36.1076 55.6891 36.2988C55.5311 36.4817 55.4064 36.7103 55.315 36.9847C55.2235 37.259 55.1778 37.5749 55.1778 37.9324V41H53.7562V34.553Z" fill="#004B7A"></path><path d="M57.2424 34.553H58.3148V32.6202H59.7364V34.553H61.0208V35.613H59.7364V39.0547C59.7364 39.2043 59.7405 39.3332 59.7488 39.4413C59.7655 39.5493 59.7945 39.6408 59.8361 39.7156C59.886 39.7904 59.9567 39.8486 60.0481 39.8902C60.1396 39.9234 60.2643 39.9401 60.4222 39.9401C60.522 39.9401 60.6217 39.9401 60.7215 39.9401C60.8212 39.9317 60.921 39.9151 61.0208 39.8902V40.9875C60.8628 41.0042 60.709 41.0208 60.5594 41.0374C60.4097 41.054 60.2559 41.0624 60.098 41.0624C59.7239 41.0624 59.4204 41.0291 59.1877 40.9626C58.9632 40.8878 58.7845 40.7839 58.6515 40.6508C58.5268 40.5095 58.4395 40.3349 58.3896 40.1271C58.348 39.9193 58.3231 39.6823 58.3148 39.4163V35.613H57.2424V34.553Z" fill="#004B7A"></path><path d="M61.794 34.553H63.1408V35.5007L63.1657 35.5257C63.3818 35.1682 63.6645 34.8897 64.0137 34.6902C64.3628 34.4823 64.7494 34.3784 65.1734 34.3784C65.88 34.3784 66.437 34.5613 66.8444 34.9271C67.2517 35.2929 67.4554 35.8416 67.4554 36.5732V41H66.0338V36.9473C66.0172 36.4401 65.9091 36.0744 65.7096 35.8499C65.5101 35.6171 65.1983 35.5007 64.7743 35.5007C64.5332 35.5007 64.3171 35.5465 64.1259 35.6379C63.9347 35.721 63.7726 35.8416 63.6396 35.9995C63.5065 36.1492 63.4026 36.3279 63.3278 36.5357C63.253 36.7436 63.2156 36.9639 63.2156 37.1967V41H61.794V34.553Z" fill="#004B7A"></path><path d="M73.132 37.2091C73.1153 36.9847 73.0655 36.7685 72.9823 36.5607C72.9075 36.3528 72.7994 36.1741 72.6581 36.0245C72.5251 35.8665 72.3588 35.7418 72.1593 35.6504C71.9681 35.5506 71.7519 35.5007 71.5109 35.5007C71.2615 35.5007 71.0328 35.5465 70.825 35.6379C70.6255 35.721 70.4509 35.8416 70.3013 35.9995C70.1599 36.1492 70.0436 36.3279 69.9521 36.5357C69.869 36.7436 69.8233 36.968 69.8149 37.2091H73.132ZM69.8149 38.1444C69.8149 38.3938 69.8482 38.6349 69.9147 38.8676C69.9895 39.1004 70.0976 39.3041 70.2389 39.4787C70.3802 39.6532 70.559 39.7946 70.7751 39.9026C70.9913 40.0024 71.249 40.0523 71.5483 40.0523C71.9639 40.0523 72.2965 39.965 72.5459 39.7904C72.8036 39.6075 72.9948 39.3373 73.1195 38.9799H74.4663C74.3914 39.329 74.2626 39.6408 74.0797 39.9151C73.8968 40.1895 73.6765 40.4222 73.4188 40.6134C73.1611 40.7963 72.8701 40.9335 72.5459 41.0249C72.23 41.1247 71.8974 41.1746 71.5483 41.1746C71.0412 41.1746 70.5922 41.0914 70.2015 40.9252C69.8108 40.7589 69.4783 40.5261 69.2039 40.2269C68.9379 39.9276 68.7342 39.5701 68.5929 39.1544C68.4599 38.7388 68.3934 38.2815 68.3934 37.7827C68.3934 37.3255 68.464 36.8932 68.6054 36.4859C68.755 36.0702 68.9628 35.7086 69.2289 35.401C69.5032 35.0851 69.8316 34.8357 70.214 34.6528C70.5964 34.4699 71.0287 34.3784 71.5109 34.3784C72.018 34.3784 72.4711 34.4865 72.8701 34.7027C73.2774 34.9105 73.6141 35.189 73.8802 35.5381C74.1462 35.8873 74.3374 36.2905 74.4538 36.7477C74.5785 37.1967 74.6117 37.6622 74.5535 38.1444H69.8149Z" fill="#004B7A"></path><path d="M75.3848 34.553H76.7191V35.8H76.7441C76.7856 35.6254 76.8646 35.455 76.981 35.2887C77.1057 35.1225 77.2512 34.9728 77.4175 34.8398C77.592 34.6985 77.7832 34.5863 77.9911 34.5031C78.1989 34.42 78.4109 34.3784 78.627 34.3784C78.7933 34.3784 78.9055 34.3826 78.9637 34.3909C79.0302 34.3992 79.0967 34.4075 79.1633 34.4158V35.7875C79.0635 35.7709 78.9596 35.7584 78.8515 35.7501C78.7517 35.7335 78.652 35.7252 78.5522 35.7252C78.3111 35.7252 78.0825 35.7751 77.8664 35.8748C77.6585 35.9663 77.4756 36.1076 77.3177 36.2988C77.1597 36.4817 77.035 36.7103 76.9436 36.9847C76.8521 37.259 76.8064 37.5749 76.8064 37.9324V41H75.3848V34.553Z" fill="#004B7A"></path><defs><clipPath id="clip0"><rect width="65.28" height="16" fill="white" transform="translate(26 13)"></rect></clipPath></defs></svg>