<svg xmlns="http://www.w3.org/2000/svg" width="88" height="43" viewBox="0 0 88 43" fill="none"><path d="M87.9888 0.5H0V42.5H87.9888V0.5Z" fill="white"></path><path d="M14.5623 32.5279C14.6503 32.2786 14.7382 32.044 14.8409 31.8094C14.9289 32.044 15.0315 32.2786 15.1195 32.5279C15.2075 32.7772 15.2955 33.0265 15.3835 33.2758H14.3276C14.3863 33.0119 14.4743 32.7626 14.5623 32.5279ZM13.8877 34.6983C13.917 34.5663 13.961 34.4344 13.9903 34.2877C14.0343 34.1557 14.0637 34.0091 14.1077 33.8771H15.5595C15.6035 34.0237 15.6475 34.1557 15.6768 34.2877C15.7208 34.4197 15.7501 34.5663 15.7794 34.6983H16.542C16.4394 34.317 16.322 33.9211 16.1754 33.5251C16.0434 33.1292 15.8968 32.7332 15.7355 32.3373C15.5888 31.9413 15.4275 31.5747 15.2662 31.2228H14.401C14.2396 31.5747 14.0783 31.956 13.9317 32.3373C13.785 32.7332 13.6384 33.1292 13.4917 33.5251C13.3598 33.9211 13.2424 34.317 13.1251 34.6983H13.8877ZM8.46171 34.6983V32.2053L9.37092 33.9064H9.98685L10.8961 32.1906V34.6983H11.5853V31.2081H10.7641L9.67889 33.2612L8.59369 31.2228H7.77246V34.713H8.46171V34.6983Z" fill="#67788A"></path><path d="M23.5079 34.6983V33.1439C23.7426 33.3492 23.9772 33.5838 24.2558 33.8624C24.5198 34.1411 24.7691 34.4197 25.0184 34.6983H25.9716C25.693 34.361 25.3997 34.0531 25.1064 33.7451C24.8131 33.4372 24.5051 33.1585 24.2118 32.8799C24.4611 32.6453 24.7398 32.396 25.0037 32.1173C25.2824 31.8387 25.5463 31.5307 25.8396 31.2081H24.9304C24.7251 31.4574 24.5051 31.7067 24.2705 31.956C24.0359 32.2053 23.7866 32.4399 23.5373 32.6892V31.2081H22.8187V34.6983H23.5079V34.6983ZM20.1497 31.956C20.267 32.044 20.3257 32.176 20.3257 32.352C20.3257 32.5279 20.267 32.6599 20.1497 32.7479C20.0324 32.8359 19.8564 32.8799 19.6071 32.8799H18.8299V31.8387H19.6071C19.8417 31.824 20.0324 31.868 20.1497 31.956ZM18.8299 34.6983V33.4665H19.6511C19.7684 33.6425 19.9004 33.8331 20.0177 34.0531C20.1497 34.273 20.267 34.4784 20.3843 34.6983H21.1762C21.0442 34.4637 20.9123 34.2291 20.7803 34.0091C20.6336 33.7891 20.5016 33.5691 20.355 33.3638C20.5896 33.2758 20.7803 33.1585 20.8976 32.9679C21.0149 32.7919 21.0736 32.5719 21.0736 32.3226C21.0736 31.9853 20.9562 31.7067 20.7363 31.5014C20.5016 31.2961 20.1644 31.1934 19.7097 31.1934H18.1553V34.6837H18.8299V34.6983Z" fill="#67788A"></path><path d="M30.0479 34.6983V34.0677H28.1121V33.2758H29.6373V32.6453H28.1121V31.8534H30.0039V31.2081H27.4082V34.6983H30.0479Z" fill="#67788A"></path><path d="M44.9917 34.757C45.2556 34.757 45.4903 34.7277 45.6956 34.669C45.9009 34.6103 46.0622 34.5517 46.2088 34.4637C46.3408 34.3904 46.4435 34.317 46.5168 34.2437V32.7332H44.8743V33.3345H45.8129V33.8918C45.7249 33.9504 45.6222 34.0091 45.4903 34.0531C45.3583 34.0971 45.197 34.1117 45.0063 34.1117H44.9183C44.6104 34.1117 44.3611 34.0091 44.1851 33.8038C44.0091 33.5985 43.9065 33.3198 43.9065 32.9532C43.9065 32.7039 43.9505 32.4839 44.0384 32.308C44.1264 32.132 44.2438 32 44.3904 31.912C44.537 31.824 44.713 31.78 44.889 31.78H44.977C45.1823 31.78 45.3583 31.824 45.5049 31.912C45.6516 32 45.7689 32.132 45.8715 32.2933L46.4141 31.912C46.2675 31.6774 46.0915 31.4867 45.8422 31.3548C45.6076 31.2228 45.3289 31.1494 45.0063 31.1494H44.9183C44.5664 31.1494 44.2731 31.2228 44.0091 31.3841C43.7451 31.5454 43.5398 31.7507 43.3932 32.0293C43.2465 32.308 43.1732 32.6159 43.1732 32.9825C43.1732 33.3345 43.2465 33.6425 43.3785 33.9064C43.5252 34.1704 43.7158 34.3757 43.9798 34.5224C44.2438 34.669 44.5517 34.7423 44.9037 34.7423H44.9917V34.757ZM39.1991 34.6983V32.1906L40.7389 34.6983H41.5161V31.2081H40.8269V33.7158L39.2871 31.2081H38.5098V34.6983H39.1991ZM36.6327 34.6983V31.2081H35.9288V34.6983H36.6327ZM33.2892 34.6983V31.8534H34.4183V31.2081H31.4561V31.8534H32.5852V34.6983H33.2892Z" fill="#67788A"></path><path d="M52.2805 31.9853C52.3978 32.0733 52.4418 32.22 52.4418 32.4106C52.4418 32.6013 52.3832 32.7332 52.2805 32.8359C52.1632 32.9239 51.9872 32.9825 51.7526 32.9825H51.0193V31.8534H51.7526C52.0019 31.8534 52.1779 31.8973 52.2805 31.9853ZM51.0193 34.6983V33.5985H51.8406C52.2952 33.5985 52.6325 33.4958 52.8524 33.2758C53.0724 33.0559 53.1897 32.7626 53.1897 32.396C53.1897 32.0293 53.0724 31.736 52.8524 31.5161C52.6325 31.2961 52.2952 31.1934 51.8406 31.1934H50.3154V34.6837H51.0193V34.6983Z" fill="#67788A"></path><path d="M55.6676 32.5279C55.7556 32.2786 55.8436 32.044 55.9463 31.8094C56.0342 32.044 56.1369 32.2786 56.2249 32.5279C56.3129 32.7772 56.4009 33.0265 56.4889 33.2758H55.433C55.4916 33.0119 55.5796 32.7626 55.6676 32.5279ZM54.993 34.6983C55.0224 34.5663 55.0664 34.4344 55.0957 34.2877C55.1397 34.1557 55.169 34.0091 55.213 33.8771H56.6648C56.7088 34.0237 56.7528 34.1557 56.7821 34.2877C56.8261 34.4197 56.8555 34.5663 56.8848 34.6983H57.6474C57.5447 34.317 57.4274 33.9211 57.2808 33.5251C57.1488 33.1292 57.0021 32.7332 56.8408 32.3373C56.6942 31.9413 56.5328 31.5747 56.3715 31.2228H55.5063C55.345 31.5747 55.1837 31.956 55.037 32.3373C54.8904 32.7332 54.7437 33.1292 54.5971 33.5251C54.4651 33.9211 54.3478 34.317 54.2305 34.6983H54.993Z" fill="#67788A"></path><path d="M61.2405 31.956C61.3578 32.044 61.4165 32.176 61.4165 32.352C61.4165 32.5279 61.3578 32.6599 61.2405 32.7479C61.1232 32.8359 60.9472 32.8799 60.6979 32.8799H59.9207V31.8387H60.6979C60.9472 31.824 61.1232 31.868 61.2405 31.956ZM59.9207 34.6983V33.4665H60.7419C60.8592 33.6425 60.9912 33.8331 61.1085 34.0531C61.2405 34.273 61.3578 34.4784 61.4751 34.6983H62.267C62.1351 34.4637 62.0031 34.2291 61.8711 34.0091C61.7244 33.7891 61.5925 33.5691 61.4458 33.3638C61.6805 33.2758 61.8711 33.1585 61.9884 32.9679C62.1057 32.7919 62.1644 32.5719 62.1644 32.3226C62.1644 31.9853 62.0471 31.7067 61.8271 31.5014C61.5925 31.2961 61.2552 31.1934 60.8006 31.1934H59.2461V34.6837H59.9207V34.6983Z" fill="#67788A"></path><path d="M65.3761 34.6983V31.868H66.5053V31.2081H63.543V31.868H64.6575V34.6983H65.3761Z" fill="#67788A"></path><path d="M68.7039 34.6983V32.2053L70.2584 34.6983H71.0356V31.2081H70.3463V33.7158L68.8065 31.2081H68.0293V34.6983H68.7039Z" fill="#67788A"></path><path d="M75.5391 34.6983V34.0677H73.618V33.2758H75.1432V32.6453H73.618V31.8534H75.4951V31.2081H72.8994V34.6983H75.5391Z" fill="#67788A"></path><path d="M79.3069 31.956C79.4243 32.044 79.4829 32.176 79.4829 32.352C79.4829 32.5279 79.4243 32.6599 79.3069 32.7479C79.1896 32.8359 79.0136 32.8799 78.7643 32.8799H77.9871V31.8387H78.7643C79.0136 31.824 79.1896 31.868 79.3069 31.956ZM77.9871 34.6983V33.4665H78.8083C78.9257 33.6425 79.0576 33.8331 79.175 34.0531C79.3069 34.273 79.4243 34.4784 79.5416 34.6983H80.3335C80.2015 34.4637 80.0695 34.2291 79.9375 34.0091C79.7909 33.7891 79.6589 33.5691 79.5123 33.3638C79.7469 33.2758 79.9375 33.1585 80.0549 32.9679C80.1722 32.7919 80.2308 32.5719 80.2308 32.3226C80.2308 31.9853 80.1135 31.7067 79.8935 31.5014C79.6589 31.2961 79.3216 31.1934 78.867 31.1934H77.2832V34.6837H77.9871V34.6983Z" fill="#67788A"></path><path d="M87.9888 0.5H0V23.5237H87.9888V0.5Z" fill="#67788A"></path><path d="M13.5357 8.24302V9.25489C13.5357 9.31355 13.4917 9.37221 13.4184 9.37221H9.09228V11.4399H12.6705C12.7438 11.4399 12.7878 11.4839 12.7878 11.5426V12.5545C12.7878 12.6131 12.7438 12.6571 12.6705 12.6571H9.09228V15.7074C9.09228 15.7661 9.04828 15.8101 8.98962 15.8101H7.90443C7.84577 15.8101 7.78711 15.7661 7.78711 15.7074V8.22836C7.78711 8.1697 7.8311 8.11104 7.90443 8.11104H13.4477C13.4917 8.1257 13.5357 8.1697 13.5357 8.24302Z" fill="white"></path><path d="M22.3931 15.8247H21.1906C21.1319 15.8247 21.0879 15.7954 21.0586 15.7221C20.8973 15.0915 20.7066 14.4316 20.4867 13.757H16.8058C16.5858 14.4316 16.3952 15.0915 16.2339 15.7221C16.2192 15.7807 16.1752 15.8247 16.1019 15.8247H14.9434C14.87 15.8247 14.826 15.7807 14.8407 15.7074C15.5299 13.2584 16.5858 10.5454 17.6563 8.27235C17.7003 8.1697 17.7737 8.1257 17.8763 8.1257H19.4308C19.5334 8.1257 19.5921 8.1697 19.6508 8.27235C20.7213 10.5454 21.7625 13.2584 22.4664 15.7074C22.5251 15.7807 22.4811 15.8247 22.3931 15.8247ZM20.0907 12.5691C19.6948 11.4546 19.2401 10.3548 18.7855 9.34288H18.5216C18.067 10.3548 17.6123 11.4693 17.2164 12.5691H20.0907Z" fill="white"></path><path d="M24.3584 12.0412C24.3584 9.65084 25.9275 7.97905 28.1713 7.97905H28.3326C29.7404 7.97905 30.8256 8.69762 31.4122 9.72416C31.4562 9.78282 31.4415 9.84148 31.3682 9.88547L30.4003 10.3694C30.3416 10.3987 30.2537 10.3987 30.2097 10.3254C29.799 9.62151 29.1978 9.25489 28.2886 9.25489H28.1273C26.7194 9.25489 25.7369 10.3694 25.7369 11.9972C25.7369 13.625 26.6901 14.7249 28.1273 14.7249H28.2886C29.2125 14.7249 29.755 14.4169 30.1657 13.933C30.2243 13.8743 30.283 13.8596 30.3416 13.889L31.3388 14.3729C31.3828 14.4022 31.3975 14.4169 31.3975 14.4462C31.3975 14.4756 31.3828 14.4902 31.3682 14.5342C30.7523 15.4288 29.6524 15.9714 28.3179 15.9714H28.1566C25.8835 15.9714 24.3584 14.4022 24.3584 12.0412Z" fill="white"></path><path d="M40.1669 14.6955V15.7074C40.1669 15.7661 40.1229 15.8247 40.0495 15.8247H34.2716C34.1983 15.8247 34.1689 15.7807 34.1689 15.7074V8.22836C34.1689 8.1697 34.2129 8.11104 34.2716 8.11104H39.9469C40.0202 8.11104 40.0642 8.15503 40.0642 8.22836V9.24023C40.0642 9.31355 40.0202 9.35755 39.9469 9.35755H35.4888V11.352H39.1256C39.1843 11.352 39.243 11.396 39.243 11.4693V12.4665C39.243 12.5251 39.199 12.5691 39.1256 12.5691H35.4888V14.5782H40.0642C40.1229 14.5929 40.1669 14.6369 40.1669 14.6955Z" fill="white"></path><path d="M50.1091 13.713C50.1091 15.0622 49.0826 15.8247 47.2495 15.8247H43.4659C43.4073 15.8247 43.3633 15.7807 43.3633 15.7074V8.22836C43.3633 8.1697 43.4073 8.11104 43.4659 8.11104H46.9122C48.6866 8.11104 49.6545 8.81495 49.6545 10.1055C49.6545 10.956 49.2292 11.5133 48.364 11.7626C49.5812 12.0412 50.1091 12.7598 50.1091 13.713ZM46.8828 9.32822H44.6684V11.396H46.8828C47.88 11.396 48.3347 11.0733 48.3347 10.3694C48.3347 9.65084 47.88 9.32822 46.8828 9.32822ZM48.7746 13.5957C48.7746 12.8771 48.3053 12.5545 47.2641 12.5545H44.6684V14.6222H47.2641C48.3053 14.6222 48.7746 14.3143 48.7746 13.5957Z" fill="white"></path><path d="M52.4121 11.9679C52.4121 9.65084 53.9519 7.97905 56.3716 7.97905H56.5329C58.9526 7.97905 60.4924 9.65084 60.4924 11.9679C60.4924 14.2849 58.9526 15.9567 56.5329 15.9567H56.3716C53.9519 15.9714 52.4121 14.2996 52.4121 11.9679ZM56.5329 14.7102C58.1167 14.7102 59.0993 13.625 59.0993 11.9679C59.0993 10.3108 58.1021 9.22556 56.5329 9.22556H56.3716C54.7878 9.22556 53.8053 10.3108 53.8053 11.9679C53.8053 13.625 54.8025 14.7102 56.3716 14.7102H56.5329Z" fill="white"></path><path d="M62.7217 11.9679C62.7217 9.65084 64.2615 7.97905 66.6812 7.97905H66.8425C69.2622 7.97905 70.802 9.65084 70.802 11.9679C70.802 14.2849 69.2622 15.9567 66.8425 15.9567H66.6812C64.2615 15.9714 62.7217 14.2996 62.7217 11.9679ZM66.8425 14.7102C68.4263 14.7102 69.4088 13.625 69.4088 11.9679C69.4088 10.3108 68.4116 9.22556 66.8425 9.22556H66.6812C65.0974 9.22556 64.1148 10.3108 64.1148 11.9679C64.1148 13.625 65.112 14.7102 66.6812 14.7102H66.8425Z" fill="white"></path><path d="M80.2897 15.8247H78.8672C78.7793 15.8247 78.7353 15.8101 78.6766 15.7367C77.6794 14.5636 76.5062 13.405 75.509 12.5398H74.8784V15.7221C74.8784 15.7807 74.8344 15.8394 74.7611 15.8394H73.6759C73.6026 15.8394 73.5586 15.7954 73.5586 15.7221V8.24302C73.5586 8.18436 73.6026 8.1257 73.6759 8.1257H74.7611C74.8198 8.1257 74.8784 8.1697 74.8784 8.24302V11.2786H75.5237C76.5942 10.3108 77.5914 9.26956 78.398 8.21369C78.4566 8.14037 78.5006 8.1257 78.5593 8.1257H79.8938C79.9671 8.1257 79.9964 8.15503 79.9964 8.19903C79.9964 8.21369 79.9818 8.24302 79.9524 8.28701C78.7646 9.73883 77.6061 10.9413 76.5209 11.8652C77.8847 13.0237 79.1752 14.2996 80.3484 15.6927C80.407 15.7514 80.3777 15.8247 80.2897 15.8247Z" fill="white"></path><path d="M87.6955 0.5V42.2067H0.293296V0.5H0V42.2067V42.5H0.293296H87.6955H87.9888V42.2067V0.5H87.6955Z" fill="#67788A"></path></svg>