<svg xmlns="http://www.w3.org/2000/svg" xmlns:xlink="http://www.w3.org/1999/xlink" id="Layer_1" x="0px" y="0px" viewBox="0 0 236 203" style="enable-background:new 0 0 236 203;" xml:space="preserve">
<style type="text/css">
	.st0{display:none;}
	.st1{display:inline;}
	.st2{display:inline;fill:#FFFFFF;}
	.st3{display:inline;fill:#FFC200;}
	.st4{fill:#FFC200;}
	.st5{fill:#FFFFFF;}
</style>
<g class="st0">
	<path class="st1" d="M285.5,212.6c-1,4.3-3.7,7-7,9c-3.5,2.1-7.4,3.2-11.4,2.2c-3.2-0.7-6.3-2.1-9.4-3.5c-1.1-0.5-2.3-1.6-2.8-2.8   c-1.2-3-3.7-4.2-6.2-5.7c-2.3-1.4-4.4-3.3-6.2-5.3c-2.4-2.5-3.1-5.6-2.4-9c0.1-0.7,0-1.7-0.4-2.1c-4.5-4.9-4.7-10.5-2.5-16.4   c0.3-0.8,0.4-1.9,0.1-2.7c-1.7-5.4-0.3-10.4,3.9-14.1c0.5-0.4,0.8-1.4,0.7-2c-1-6.4-3.9-12.1-6.5-17.8c-4-8.7-8.1-17.4-11.8-26.2   c-3.2-7.6-5.5-15.5-6.9-23.7c-1.5-8.6-1.5-17.3,1.5-25.5c4.1-11.1,11.4-19.6,21.9-25.2c9.1-4.8,18.7-7.3,29-8.2   c16.9-1.4,29.9,6.2,41.4,17.3c6.7,6.5,10.5,14.8,12.6,24c1.5,6.8,1.2,13.4-0.4,20.1c-3.2,13.5-9.3,25.6-16.1,37.5   c-5.3,9.3-9.6,19-11.9,29.4c-0.1,0.7-0.1,1.7,0.3,2.2c2.8,3.5,3.1,7.4,2.4,11.6c-0.2,1,0,2.2,0.3,3.2c0.8,2.8,1.5,5.5,1,8.4   c-0.2,1,0.2,2.2,0.4,3.2c0.4,2,1.1,3.9,1.4,5.9c0.6,5-1.3,9.1-5.4,12.1C292.1,210.5,289,212.1,285.5,212.6z M280.1,83.3   c3-1.6,5.5-3.5,8.3-4.4c5.8-1.8,11.4-1.3,15.8,3.6c4.5,5.1,4.8,11.2,3,17.3c-3,9.8-7.8,18.7-14.3,26.6   c-5.5,6.7-11.1,13.3-15.1,21.1c-3.4,6.5-4.6,13.2-3.2,20.4c0.3,1.7,1,2.3,2.7,1.9c2.5-0.5,5.1-0.5,7.6-1.2c2-0.6,3.9-1.9,5.7-3.1   c0.5-0.3,0.4-1.6,0.6-2.4c1.4-9.1,3.9-17.8,7.9-26c7-14.2,13.8-28.4,18.4-43.6c0.5-1.5,1-3,1.2-4.6c1.1-10-1.2-19.3-6.4-27.9   c-4.4-7.3-11.1-11.9-18.3-16c-6.2-3.5-12.6-6-19.9-6.2c-8.1-0.1-15.9,0.9-23.4,4c-5.1,2.1-10.2,4.2-14.5,7.7   c-10.3,8.2-15,19-15.3,31.9c-0.2,11.5,2.2,22.6,6.2,33.3c3.7,9.8,8.1,19.2,12.1,28.9c2.7,6.3,5,12.7,5.2,19.7   c0,0.8,0.9,1.7,1.6,2.2c3.2,2.1,7,2.7,10.7,3.4c1.2,0.2,1.4-0.6,1.4-1.4c-0.1-3.2,0-6.4-0.5-9.5c-1.3-8.7-5-16.7-8.9-24.5   c-5.2-10.4-10.1-20.7-11.1-32.5c-0.4-5-0.1-9.8,2.2-14.5c4.6-9.4,17.2-12.6,24-5.8c0.3,0.3,1.3,0.1,1.8-0.2   c2.6-1.7,5.3-2.3,8.4-1.9C276.6,80,278.7,81.5,280.1,83.3z M272.4,170.4c-0.1-0.6-0.1-1.1-0.2-1.4c-2.1-6.4-1.7-12.9-0.2-19.2   c1.5-6.6,5.1-12.3,9.1-17.6c6.4-8.5,12.8-16.9,18-26.3c2.6-4.6,4.6-9.4,4.1-14.9c-0.4-4.6-3-7.8-7.4-8.9c-4.7-1.2-8.6,0.2-12.2,3.3   c-0.9,0.8-1,1.4-0.5,2.5c1.7,3.7,2.4,7.7,2.2,11.8c-0.2,3.1-0.8,6.2-2.5,8.9c-1,1.5-2.3,2.5-4.1,2.3c-1.8-0.2-2.8-1.5-3.3-3.1   c-0.3-1-0.7-2-0.7-3c-0.5-6.1,0.1-12.1,3.4-17.5c0.3-0.4,0.3-1.2,0.1-1.6c-2.2-3.6-7.8-4.3-11-1.5c-0.7,0.6-0.8,1.2-0.4,2   c2.5,4.9,3.2,10.2,3.4,15.6c0.1,2.8-0.5,5.5-2.3,7.8c-1.9,2.4-4.9,2.4-6.7-0.1c-0.5-0.7-1-1.6-1.2-2.4c-1.9-7.3-1-14.4,2.3-21.2   c0.6-1.2,0.5-1.8-0.5-2.6c-3.5-2.9-7.4-3-11.4-1.3c-5.6,2.3-8.9,8.6-8.2,15.4c0.5,5.7,1.5,11.4,3.5,16.7c2.8,7.3,6,14.4,8.9,21.7   c3.5,8.7,6.6,17.5,6.1,27.1c-0.1,2.5-0.6,4.9-1,7.6C263.8,170.4,268,170.4,272.4,170.4z M239.3,180.8c-1.4,4.3-0.4,8.1,2.1,11.5   c0.6,0.8,1.5,1.4,2.4,1.9c4.3,1.9,8.8,2.9,13.6,2.1c0.9-0.1,2-0.2,2.1,1.1c0.1,1.3-1,1.3-1.9,1.5c-0.4,0.1-0.7,0.1-1.1,0.1   c-4.8-0.5-9.6-1-14.5-1.5c0-0.1-0.1,0.2-0.1,0.4c-0.3,3.7,1.8,6.2,4.5,8.3c6.9,5.4,14.9,5.9,23.2,4.8c4.1-0.5,7.9-1.8,12.3-1.2   c5,0.7,9.5-2.4,13-6c3.5-3.5,2.4-8,2.1-12.8c-0.9,1.2-1.5,2.1-2.1,2.8c-3.5,4-8.3,5.6-13.2,7.1c-0.5,0.1-1.1-0.4-1.7-0.6   c0.4-0.5,0.7-1.1,1.1-1.3c3.1-1.6,6.4-2.8,9.3-4.6c4.3-2.7,6.4-9,5.1-13.9c0-0.2-0.2-0.4-0.4-0.6c-0.5,0.5-1,0.8-1.3,1.2   c-4.6,4.9-10.5,6.1-16.9,6c-0.5,0-0.9-0.6-1.3-0.9c0.4-0.4,0.8-0.7,1.3-1c0.2-0.1,0.5-0.1,0.7-0.1c3.8,0,7.3-1.1,10.7-2.8   c5-2.6,7.6-8.4,6.1-13.8c-0.2-0.6-0.5-1.1-0.8-1.8c-3.7,4.8-5.6,6.4-9.5,7.1c-7.7,1.4-15.3,2.9-23.2,1.8c-4.9-0.7-9.8-1.6-14.2-4   c-2-1.1-3.7-2.7-5.9-4.4c-0.3,1.7-1,3.4-0.7,4.9c0.5,2.5,1.4,4.9,2.5,7.2c0.4,0.9,1.4,1.8,2.4,2.1c2.9,0.9,5.9,1.4,8.8,2.2   c0.6,0.2,1.1,0.8,1.7,1.2c-0.6,0.4-1.1,1.1-1.7,1.1c-5.2,0.1-10.2-0.5-14-4.8C239.6,180.9,239.5,180.9,239.3,180.8z M282.5,213.4   c-4.1,0.7-8.4,1.6-12.7,1.9c-4.3,0.3-8.6,0.1-13,0.1C262.5,222,275,223.6,282.5,213.4z M264.9,87.6c-2.4,3.8-3.8,12.1-2.9,16.9   c0.2,1.1,0.5,2.2,1,3.1c0.8,1.5,2.1,1.5,2.7,0c0.7-1.5,1.5-3.1,1.4-4.7c-0.2-4.3-0.8-8.6-1.2-12.9   C265.7,89.3,265.3,88.5,264.9,87.6z M278.6,107.2c3.3-5.6,3.1-11.4,1.5-17.3C277.2,95.4,276.9,101.3,278.6,107.2z"></path>
	<path class="st1" d="M377.5,10.8c1.9,0,3.4,1.3,3.6,3c0.2,1.9-0.9,3.5-2.9,3.8c-5,0.9-10.1,1.8-15.1,2.8   c-15.3,2.8-29,9.1-40.9,19.1c-1.9,1.6-3.5,3.3-5.4,5c-0.4,0.3-1,0.4-1.5,0.6c0-0.6-0.2-1.3,0.1-1.7c3.2-5,7.6-8.9,12.3-12.4   c10.8-8.3,23-13.8,36.2-17c4-1,8.1-1.9,12.1-2.8C376.6,11,377.2,10.9,377.5,10.8z"></path>
	<path class="st1" d="M372.1,76.5c9.2-0.2,18.6,2,28,4.7c2,0.6,3,2.1,2.5,3.8c-0.5,1.7-2,2.5-4.1,2c-6.7-1.6-13.4-3.6-20.1-4.7   c-12.7-2.2-25.3-1.8-37.7,2.3c-0.5,0.2-1.1-0.2-1.7-0.3c0.4-0.5,0.7-1.3,1.2-1.5C350.3,79.2,360.5,76.2,372.1,76.5z"></path>
	<path class="st1" d="M218.6,145.3c5.1,0.9,10.3,1.8,15.4,2.8c0.5,0.1,0.9,0.9,1.4,1.4c-0.6,0.3-1.3,0.9-1.8,0.8   c-6.2-1.1-12.3,0.4-18.4,1.3c-8.5,1.4-16.2,5-23.9,8.4c-0.5,0.2-1,0.5-1.5,0.6c-1.9,0.6-3.8-0.2-4.6-1.9c-0.8-1.8-0.1-3.9,1.8-4.8   c10.1-4.4,20.3-8.3,31.5-8C218.6,145.7,218.6,145.5,218.6,145.3z"></path>
	<path class="st1" d="M283.8,26.4c0.8-3,1.4-5.8,2.2-8.5c4.3-13.3,11.6-24.8,21-35.1c1.4-1.6,2.7-3.3,4.1-4.9c1.5-1.7,3.8-2,5.3-0.6   c1.5,1.4,1.4,3.5-0.1,5.2c-5.1,5.5-10.4,10.7-15.2,16.4c-6.9,8.2-11.7,17.7-15.6,27.7c-0.2,0.5-0.6,0.9-1,1.3   C284.4,27.3,284.1,26.9,283.8,26.4z"></path>
	<path class="st1" d="M339,128c11.8,1.5,23.4,2,34.4,6c7.1,2.6,13.2,6.9,19.3,11.2c1.7,1.2,1.8,3.1,0.7,4.5   c-1.1,1.4-2.9,1.6-4.6,0.4c-2.5-1.7-5-3.5-7.5-5.3c-6.8-5-14.4-8.1-22.4-10.6c-6.6-2-13.2-3.5-20-4.3c-0.5-0.1-0.9-0.7-1.4-1   C338.1,128.5,338.7,128.2,339,128z"></path>
	<path class="st1" d="M167.5,34.1c0.3,0.1,1.1,0.3,1.8,0.8c9,5.8,18.3,11.3,27,17.6c5.6,4,11.5,7.9,15,14.3c0.4,0.6,0.7,1.3,0.9,2   c0.1,0.3-0.1,0.9-0.3,1c-0.3,0.1-0.9-0.1-1.1-0.3c-6.3-9.7-16.7-13.8-26.2-19c-6.2-3.5-12.7-6.5-19.1-9.7c-1.6-0.8-2.4-2.5-1.9-4.1   C164.1,34.9,165.2,34.1,167.5,34.1z"></path>
	<path class="st1" d="M186.4,104.3c5.4,0,10.7-0.3,16.1,0.1c5.2,0.4,10.1,2.1,14.4,5.2c0.5,0.4,1,0.8,1.3,1.3   c0.2,0.4,0.2,0.9,0.3,1.4c-0.6,0-1.3,0.3-1.6,0c-3.7-3.2-8.2-3.6-12.8-3.8c-10.1-0.6-19.9,1-29.6,3.9c-2.2,0.7-4.4,1.3-6.7,1.9   c-1.8,0.5-3.3-0.4-3.8-1.9c-0.6-1.7,0.2-3.4,2.1-3.9c6.7-1.7,13.5-3.2,20.3-4.8C186.3,103.8,186.4,104,186.4,104.3z"></path>
	<path class="st1" d="M213.1-7.9c0.1-2,0.9-3.2,2.5-3.6s3.1,0.3,3.9,2c2.2,4.4,4.2,9,6.6,13.3c4.5,8,9.1,16,13.8,24   c0.4,0.7,0.9,1.3,1.2,2.1c0.2,0.6,0.2,1.3,0.3,1.9c-0.5-0.3-1.2-0.5-1.5-0.9c-4.3-5.7-8.8-11.4-12.9-17.3   c-4.5-6.4-8.7-13-12.9-19.5C213.5-6.7,213.2-7.5,213.1-7.9z"></path>
	<path class="st1" d="M345.1,174.4c-0.7,0.8-1.1,1.7-1.7,1.9c-0.7,0.2-1.9-0.1-2.4-0.6c-1.6-1.4-2.8-3.3-4.4-4.7   c-4.9-4.5-9.9-8.9-14.9-13.3c-1-0.9-2.4-1.2-3.5-1.9c-0.5-0.3-0.9-0.9-1.4-1.4c0.7-0.1,1.5-0.4,2.1-0.2c2.1,0.9,4.3,1.8,6.1,3.2   c5.1,3.9,10,8,15,12c1.2,1,2.4,1.9,3.5,2.9C344.1,172.9,344.5,173.6,345.1,174.4z"></path>
	<path class="st2" d="M280.1,83.3c-1.5-1.8-3.6-3.4-6.5-3.7c-3-0.4-5.8,0.2-8.4,1.9c-0.5,0.3-1.5,0.5-1.8,0.2   c-6.8-6.9-19.4-3.6-24,5.8c-2.3,4.6-2.7,9.4-2.2,14.5c1,11.8,6,22.1,11.1,32.5c3.9,7.8,7.5,15.8,8.9,24.5c0.5,3.1,0.4,6.3,0.5,9.5   c0,0.8-0.2,1.7-1.4,1.4c-3.7-0.7-7.5-1.2-10.7-3.4c-0.7-0.5-1.6-1.4-1.6-2.2c-0.2-7-2.5-13.4-5.2-19.7c-4.1-9.6-8.5-19.1-12.1-28.9   c-4-10.7-6.4-21.8-6.2-33.3c0.3-12.9,5-23.8,15.3-31.9c4.4-3.4,9.4-5.6,14.5-7.7c7.6-3.1,15.4-4.1,23.4-4   c7.3,0.1,13.7,2.6,19.9,6.2c7.1,4.1,13.9,8.7,18.3,16c5.2,8.6,7.5,17.8,6.4,27.9c-0.2,1.6-0.7,3.1-1.2,4.6   c-4.5,15.2-11.4,29.4-18.4,43.6c-4,8.2-6.5,17-7.9,26c-0.1,0.8-0.1,2-0.6,2.4c-1.8,1.2-3.7,2.4-5.7,3.1c-2.4,0.7-5.1,0.8-7.6,1.2   c-1.7,0.3-2.3-0.2-2.7-1.9c-1.4-7.2-0.2-13.9,3.2-20.4c4-7.8,9.7-14.4,15.1-21.1c6.5-7.9,11.4-16.8,14.3-26.6   c1.9-6,1.5-12.2-3-17.3c-4.4-4.9-10-5.4-15.8-3.6C285.6,79.8,283.1,81.7,280.1,83.3z"></path>
	<path class="st3" d="M272.4,170.4c-4.4,0-8.6,0-12.8,0c0.4-2.7,0.9-5.1,1-7.6c0.5-9.6-2.7-18.4-6.1-27.1   c-2.9-7.3-6.1-14.4-8.9-21.7c-2-5.4-3-11-3.5-16.7c-0.6-6.8,2.6-13.1,8.2-15.4c4-1.6,7.8-1.5,11.4,1.3c1,0.8,1,1.4,0.5,2.6   c-3.3,6.8-4.2,13.8-2.3,21.2c0.2,0.9,0.7,1.7,1.2,2.4c1.8,2.5,4.8,2.5,6.7,0.1c1.8-2.3,2.4-5,2.3-7.8c-0.2-5.4-0.9-10.7-3.4-15.6   c-0.4-0.9-0.3-1.4,0.4-2c3.2-2.8,8.7-2.1,11,1.5c0.2,0.4,0.2,1.2-0.1,1.6c-3.3,5.4-3.9,11.4-3.4,17.5c0.1,1,0.4,2,0.7,3   c0.5,1.6,1.5,2.9,3.3,3.1c1.8,0.2,3.1-0.9,4.1-2.3c1.7-2.7,2.4-5.7,2.5-8.9c0.2-4.1-0.5-8.1-2.2-11.8c-0.5-1.1-0.3-1.7,0.5-2.5   c3.5-3.1,7.5-4.4,12.2-3.3c4.4,1.1,7,4.3,7.4,8.9c0.5,5.5-1.5,10.3-4.1,14.9c-5.2,9.3-11.6,17.8-18,26.3c-4.1,5.3-7.6,11-9.1,17.6   c-1.5,6.3-1.8,12.8,0.2,19.2C272.3,169.3,272.3,169.7,272.4,170.4z"></path>
	<path class="st2" d="M239.3,180.8c0.2,0.1,0.4,0.1,0.4,0.2c3.8,4.2,8.8,4.8,14,4.8c0.6,0,1.2-0.7,1.7-1.1c-0.6-0.4-1.1-1-1.7-1.2   c-2.9-0.8-5.9-1.3-8.8-2.2c-0.9-0.3-2-1.2-2.4-2.1c-1-2.3-2-4.7-2.5-7.2c-0.3-1.5,0.4-3.2,0.7-4.9c2.2,1.7,3.9,3.2,5.9,4.4   c4.4,2.5,9.2,3.3,14.2,4c7.9,1.1,15.6-0.3,23.2-1.8c3.9-0.7,5.8-2.3,9.5-7.1c0.3,0.7,0.6,1.3,0.8,1.8c1.5,5.4-1.1,11.2-6.1,13.8   c-3.4,1.7-6.9,2.8-10.7,2.8c-0.2,0-0.5-0.1-0.7,0.1c-0.5,0.3-0.9,0.7-1.3,1c0.5,0.3,0.9,0.9,1.3,0.9c6.4,0.1,12.3-1.1,16.9-6   c0.4-0.4,0.8-0.7,1.3-1.2c0.2,0.3,0.4,0.4,0.4,0.6c1.3,4.9-0.8,11.2-5.1,13.9c-2.9,1.8-6.2,3.1-9.3,4.6c-0.5,0.3-0.8,0.9-1.1,1.3   c0.6,0.2,1.2,0.7,1.7,0.6c4.9-1.5,9.7-3.1,13.2-7.1c0.7-0.8,1.2-1.6,2.1-2.8c0.2,4.8,1.3,9.3-2.1,12.8c-3.6,3.6-8,6.7-13,6   c-4.4-0.6-8.3,0.7-12.3,1.2c-8.3,1.1-16.3,0.6-23.2-4.8c-2.7-2.1-4.8-4.6-4.5-8.3c0-0.2,0.1-0.4,0.1-0.4c4.9,0.5,9.7,1,14.5,1.5   c0.4,0,0.7,0,1.1-0.1c0.9-0.2,2-0.1,1.9-1.5c-0.1-1.3-1.2-1.2-2.1-1.1c-4.8,0.8-9.2-0.2-13.6-2.1c-0.9-0.4-1.8-1.1-2.4-1.9   C238.8,188.9,237.8,185.1,239.3,180.8z"></path>
	<path class="st2" d="M282.5,213.4c-7.6,10.2-20,8.6-25.7,2c4.3,0,8.7,0.3,13-0.1C274.2,215,278.4,214.1,282.5,213.4z"></path>
	<path class="st3" d="M264.9,87.6c0.3,0.9,0.8,1.7,0.9,2.5c0.5,4.3,1.1,8.6,1.2,12.9c0.1,1.5-0.7,3.2-1.4,4.7c-0.7,1.5-2,1.4-2.7,0   c-0.5-0.9-0.8-2.1-1-3.1C261.1,99.7,262.6,91.4,264.9,87.6z"></path>
	<path class="st3" d="M278.6,107.2c-1.7-5.9-1.4-11.8,1.5-17.3C281.7,95.8,282,101.6,278.6,107.2z"></path>
</g>
<image style="display:none;overflow:visible;enable-background:new    ;" width="640" height="640" xlink:href="AF9C096D.jpeg" transform="matrix(0.1267 0 0 0.1267 445.6388 46.4268)">
</image>
<path d="M37.3,94.4c-1.2-0.5-2.4-1-3.5-1.6C25,88.4,19.7,81.2,17.3,71.8c-0.5-1.8-0.7-3.7-0.9-5.5c-0.2-1.7,0.3-2.8,1.2-2.9  c1.4-0.2,2,0.9,2.5,1.8c3.1,5.9,8.1,10.1,13.8,13.2c3.5,1.9,7.1,3.5,10.6,5.3c0.7,0.3,1.5,0.6,2.3,0.8c1.7,0.4,3.2,0.2,4.6-1.1  c1.3-1.3,2.6-2.5,3.8-3.6c-2.3-2.4-4.4-4.6-6.4-6.8c-3-3.3-5.1-7.2-6.7-11.4c-2.3-6.1-3.1-12.4-2.4-19c0.2-1.8,0.8-2.8,1.8-2.9  c1.1-0.2,2.1,0.7,2.6,2.3c2.8,8.7,7.4,16.3,13.4,23.2c1.5,1.7,3.1,3.2,4.8,4.7c1.5,1.4,3.6,1.2,5.5-0.2c1.9-1.4,3.8-2.7,5.8-4.1  c1.1-0.8,1.5-1.6,0.9-2.7c-1.2-2.3-2.5-4.5-3.8-6.8c-3.2-5.6-6-11.3-6.9-17.7c-0.6-4.7-0.2-9.3,1.7-13.6c0.5-1,0.8-2.6,2.3-2.3  c1.5,0.2,1.5,1.8,1.8,3c0.8,3.6,1.5,7.3,2.5,10.8c1.7,5.7,4.4,10.9,7.6,15.8c1.5,2.3,3.1,4.5,4.7,6.8c0.4,0.6,0.8,0.7,1.4,0.4  c1.4-0.6,2.7-1.2,4.1-1.6c1.9-0.7,3.9-1.3,5.8-1.9c2.8-0.9,3.3-1.9,2.3-4.7c-1.1-3.3-2.5-6.5-3.3-9.8c-1.8-7.2-1.5-14.5,0-21.8  c0.6-3.1,1.8-6,4.5-7.9c0.3-0.2,0.7-0.4,1-0.6c2.5-1.1,3.9-0.1,3.6,2.5c-0.2,2.1-0.6,4.1-0.9,6.2c-0.5,3.8-0.2,7.5,0.8,11.2  c1.5,5.8,3.1,11.6,4.8,17.4c0.7,2.5,2.1,3.1,4.7,2.8c2.5-0.3,5-0.4,7.5-0.5c1.7-0.1,2.6-0.7,2.9-2.3c0.2-1.2,0.2-2.5,0.2-3.7  c-0.6-10.9,2.3-20.9,8.3-29.9c0.7-1.1,1.5-2.1,2.3-3c0.6-0.8,1.4-1.2,2.4-0.8c1,0.4,1.4,1.3,1.4,2.3c-0.1,0.9-0.3,1.8-0.6,2.7  c-3.6,9.7-5.1,19.7-4.5,30c0,0.8,0,1.7,0.1,2.5c0.1,1.4,0.7,2,2.1,2.2c2.3,0.3,4.6,0.7,7,1c0.7,0.1,1-0.1,1.1-0.8  c0.8-4.6,2-9,3.9-13.3c2.6-5.9,6.4-10.8,11.6-14.5c1-0.7,2.3-1.1,3.5-1.3c1.5-0.2,2.7,1.2,2.3,2.8c-0.3,1.1-0.8,2.3-1.5,3.2  c-4.9,6.3-8.1,13.3-9.8,21.1c-0.3,1.5-0.4,3-0.6,4.5c-0.1,1.1,0.3,1.8,1.4,2.2c1.3,0.5,2.4,1.2,3.7,1.8c1.6,0.8,2.5,0.4,3.5-1.1  c1.9-3.2,3.7-6.4,5.7-9.4c2.4-3.6,5.2-6.8,8.7-9.3c0.7-0.5,1.5-1.1,2.4-1.3c0.7-0.1,1.7,0.2,2.2,0.7c0.3,0.3,0.3,1.4,0,1.9  c-1.4,2.1-2.8,4.2-4.4,6.1c-3.6,4.3-6.4,9.1-8.6,14.3c-0.7,1.7-0.5,2.6,1.1,3.8c1.5,1.2,3,2.3,4.5,3.3c1.6,1.1,2.4,0.8,3.5-0.8  c3.2-4.6,6.8-8.9,11.8-11.7c1.5-0.8,3.2-1.3,4.9-1.8c1.1-0.3,2.1,0.3,2.5,1.5c0.4,1-0.3,1.8-1.1,2.3c-2.9,2-5.7,4-7.8,6.8  c-1.8,2.3-3.4,4.8-4.9,7.3c-0.9,1.5-0.8,2.5,0.5,3.8c1.5,1.4,3.3,2.7,5,3.9c0.9,0.7,1.7,0.4,2.4-0.4c2-2.1,3.8-4.2,6-6.1  c2.7-2.4,5.9-4,9.6-3.9c1,0,2,0.1,2.3,1.3c0.3,1.1-0.4,1.8-1.3,2.4c-2.2,1.4-4.5,2.7-6.5,4.4c-2,1.7-3.8,3.8-5.5,5.8  c-1.3,1.5-1.1,2.9,0.4,4.2c1.4,1.2,2.9,2.3,4.5,3.4c1,0.7,1.8,0.2,2.6-0.4c2-1.5,4-3,6.1-4.3c1.3-0.8,2.9-1.3,4.4-1.9  c0.8-0.3,1.8-0.3,2.1,0.5c0.3,0.6,0.2,1.7-0.2,2.2c-1.4,1.5-2.9,2.9-4.5,4.3c-1.4,1.3-2.7,2.6-3.3,4.5c-0.5,1.6-0.3,2.5,1.1,3.4  c4.4,3.1,9,5.3,14.5,5c0.8,0,1.5,0.1,2.3,0.1c1.8,0.1,3.4,0.8,4.1,2.5c0.8,1.8,0.3,3.6-1,4.9c-1.1,1.2-2.6,2.1-4,2.9  c-4.6,2.3-9.5,2.7-14.6,2.3c-1.7-0.1-3.4-0.2-5-0.4c-4-0.5-6.7,1.4-8.8,4.6c-2.1,3.3-4.2,6.6-6.6,9.7c-4,5.1-8.7,9.6-13.9,13.5  c-4,2.9-8.1,5.5-12.6,7.5c-6.4,2.9-13.2,4.8-20.2,5.7c-16.5,2.2-32.6,0.7-48.4-4.4c-6.8-2.2-13.3-5.4-19.2-9.4  c-4.6-3.1-8.7-6.9-12.5-11c-2.7-3-5.5-5.9-7.4-9.5c-1.2-2.1-2.2-4.4-3-6.8c-1-2.9-2.3-4.1-5.3-4.4c-3.5-0.3-6.7,0.9-9.9,2.1  c-2.9,1.1-5.9,2.3-8.9,3c-5.5,1.2-10.5-1.7-12.6-6.9c-1.2-3.1,0.1-5.1,3.5-5.3c2-0.1,4-0.1,5.9-0.5c3.3-0.7,6.2-2.4,8.9-4.4  C34.2,96.5,35.8,95.5,37.3,94.4z M53.6,105c0.9,2.1,1.7,4,2.4,6c1.8,4.7,4,9.1,7.2,13c6.6,7.9,15.1,13.4,24.4,17.5  c8.5,3.7,17.4,6,26.6,7.2c13.7,1.7,27.1,1,40.2-3.5c7.8-2.7,14.6-6.9,20.7-12.4c5.2-4.7,9.7-10.1,13.5-16c1.6-2.5,3-5.1,4.6-7.7  c-4.8-3.1-9.4-6.1-14.1-9.1c-0.1,0.3-0.3,0.5-0.4,0.7c-2,5.3-5.2,9.8-9.3,13.6c-4.8,4.5-10.3,7.7-16.4,10.2c-7.4,3-15.1,4.7-23,5.2  c-7.4,0.5-14.8-0.2-22-1.9c-8.9-2.1-17.4-5.2-25-10.6c-4.1-2.9-7.6-6.3-10-10.8c-1.6-3.2-3.2-6.4-4.9-9.7  C63.4,99.4,58.5,102.2,53.6,105z M152.7,92.7c4.5,3.7,8.9,7.4,13.6,11.3c2.1-2.9,4.1-5.7,6.3-8.7c-5.8-3.4-11.4-6.6-16.9-9.8  C154.6,88.1,153.6,90.4,152.7,92.7z M106.6,101.8c-4.7,4.3-9.7,8.1-15.3,11.3c4.3,3.3,8.8,5.4,13.9,7c0.3-0.8,0.7-1.6,0.9-2.4  c0.9-3.6,1.8-7.2,2.6-10.8c0.3-1,1-2.2,0.7-3c-0.3-0.8-1.6-1.3-2.5-1.9C106.8,101.9,106.7,101.9,106.6,101.8z M88.4,110.9  c4.9-4.6,9.4-8.9,14-13.2c-1.2-1.6-2.3-2.9-3.2-4.1c-5.7,2.6-11.3,5.1-17.1,7.7C83.9,104.3,86,107.5,88.4,110.9z M135.9,91.5  c1-0.3,2.1-0.5,3.1-0.9c3.1-1.3,4.6-4,5.9-6.8c0.6-1.3,0.2-2.3-1-3.1c-0.7-0.4-1.4-0.9-2.2-1.1c-2.5-0.6-4.9-1.2-7.4-1.7  c-2.2-0.4-3.4,0.5-3.9,2.7c-0.5,2.3-0.2,4.6,0.5,6.7C131.6,89.8,133.5,91.3,135.9,91.5z M155.2,113.8c2.5-2,5.1-4.1,7.8-6.3  c-4.3-4.1-8.5-8-12.6-11.8c-2.1,1.8-4.1,3.6-6.1,5.3C147.8,105.2,151.4,109.4,155.2,113.8z M136.8,121.6c-1.7-5.2-3.2-10-4.8-14.9  c-2.8,0.4-5.5,0.9-8.1,1.3c0.6,4.8,1.3,9.7,2,14.9C129.4,122.4,133.1,122,136.8,121.6z M120.7,122.8c-0.4-5.3-0.9-10.2-1.3-15.2  c-1.5-0.4-3.2-0.8-4.9-1.3c-2,4.9-4,9.7-6,14.7C112.6,121.7,116.6,122.2,120.7,122.8z M150.5,116.7c-3.4-4.7-6.6-9.1-9.8-13.5  c-2,0.9-3.8,1.7-5.6,2.5c2.1,4.9,4.1,9.7,6.3,14.7C144.4,119.2,147.3,118,150.5,116.7z M94.1,85.1c-5.8,2.4-11.5,4.8-17.2,7.2  c0.9,1.5,1.7,2.6,2.4,3.9c0.4,0.9,0.9,1,1.7,0.6c3.3-1.7,6.7-3.3,10.1-5c1.7-0.9,3.4-1.8,5.1-2.7C95.4,87.7,94.8,86.5,94.1,85.1z"></path>
<path d="M103.1,167c-0.6,3.6-1.3,7.3-1.9,10.9c-0.6,3.2-1.2,6.4-1.9,9.6c-0.2,0.8-0.6,1.6-1,2.3c-1.3,2.1-3.6,2.1-4.9-0.1  c-1.1-1.7-1.2-3.6-0.9-5.4c0.9-5.5,1.9-11,2.9-16.5c0.3-1.5,0.6-3,1.2-4.4c0.7-1.8,1.9-2.5,3.4-2.3c1.4,0.2,2.5,1.4,2.7,3.2  c0.1,0.9,0.2,1.8,0.2,2.6C103,166.9,103.1,167,103.1,167z"></path>
<path d="M192.4,175.5c-1.7-0.1-3.3-1.4-4.5-3c-3.2-4.2-6.3-8.5-9.4-12.7c-1-1.4-2-2.8-2.8-4.3c-0.5-0.9-0.7-2.1-0.6-3.1  c0.3-1.9,2.4-2.7,4.2-1.8c2,0.9,3.5,2.5,4.8,4.2c3.4,4.5,6.6,9.1,9.8,13.7c0.7,1,1.2,2.2,1.5,3.4  C196.4,174.1,195.3,175.5,192.4,175.5z"></path>
<path d="M194.4,134.2c1.8,0.1,3.4,1.1,4.9,2.2c1.5,1.2,3,2.4,4.5,3.8c3,2.8,6.1,5.5,9,8.4c0.9,0.9,1.6,2,2.4,3.1  c0.6,0.9,0.9,2,0.2,3c-0.8,1.2-2.1,1.6-3.4,1.2c-1.5-0.4-3-1-4.1-2c-2.8-2.3-5.4-4.7-8.1-7.1c-2.2-2-4.5-4-6.5-6.1  c-0.8-0.8-1.4-1.9-1.8-2.9C190.8,135.9,192.2,134.1,194.4,134.2z"></path>
<path d="M164.6,185.2c-0.1,1.6-0.2,3-1.6,3.6c-1.2,0.6-3.1-0.1-4.1-1.3c-1.9-2.1-2.5-4.8-3.3-7.4c-1.4-4.6-2.8-9.3-4.1-14  c-0.5-1.6-0.9-3.3,0-4.9c1-1.8,3.6-2.1,4.8-0.4c1.3,1.9,2.5,3.9,3.2,6.1c1.7,5.1,3.1,10.4,4.6,15.6  C164.5,183.6,164.5,184.5,164.6,185.2z"></path>
<path d="M126.2,178.9c0-3.3-0.1-6.6,0-9.9c0.1-2.3,1.2-3.6,2.9-3.9c1.3-0.2,2.4,0.2,2.8,1.3c0.7,1.8,1.3,3.8,1.7,5.7  c0.3,1.5,0.3,3.1,0.3,4.6c0.1,3.8,0.3,7.7,0.2,11.5c0,1.8-0.3,3.6-0.9,5.3c-0.7,2.3-3.1,2.7-4.8,0.9c-1.6-1.7-1.9-3.9-2-6  c-0.1-3.1,0-6.3,0-9.4C126.4,178.9,126.3,178.9,126.2,178.9z"></path>
<path d="M65.5,178c0.8-2,1.3-4,2.3-5.9c2.1-4.1,4.3-8.2,6.5-12.3c0.9-1.7,2-3.4,3.2-4.9c0.9-1.2,2.3-1.2,3.6-0.6  c1,0.4,1.7,1.8,1.6,3.1c-0.1,0.6-0.1,1.3-0.3,1.9c-1,2.4-1.9,4.8-3,7.1c-1.8,3.7-3.8,7.4-5.8,11c-0.7,1.2-1.6,2.3-2.5,3.3  c-1.8,1.9-4.1,1.4-4.9-1.1c-0.2-0.5-0.2-1.1-0.3-1.6C65.7,178.1,65.6,178.1,65.5,178z"></path>
<path d="M24.8,144.6c0.3-0.6,0.8-2,1.7-2.9c1.9-1.8,3.9-3.5,6-5.1c3.3-2.5,6.7-5,10.1-7.3c1.1-0.8,2.4-1.4,3.7-1.8  c1.3-0.4,2.4,0,3.2,1.2c0.8,1.1,0.7,2.3,0,3.3c-1.3,1.7-2.6,3.4-4.2,4.7c-4.5,3.5-9.2,6.8-13.9,10.1c-0.9,0.6-2,1-3.1,1.3  C26.2,148.7,24.8,147.5,24.8,144.6z"></path>
<path d="M40.8,165c0.1-2.2,1.4-4,2.8-5.7c3.6-4.3,7.3-8.5,11-12.6c1.1-1.2,2.4-2.2,3.9-2.9c1.9-0.9,3.9,0.7,3.7,2.8  c-0.1,1.1-0.4,2.3-1,3.1c-2,2.8-4.2,5.6-6.4,8.3c-2.1,2.6-4.4,5.1-6.6,7.6c-0.7,0.8-1.7,1.5-2.6,2.1c-0.9,0.7-2.1,1.1-3.1,0.5  C41.2,167.6,40.8,166.4,40.8,165z"></path>
<path class="st4" d="M152.7,92.7c0.9-2.3,1.9-4.6,2.9-7.2c5.5,3.2,11.1,6.4,16.9,9.8c-2.2,3-4.1,5.8-6.3,8.7  C161.6,100.1,157.2,96.4,152.7,92.7z"></path>
<path class="st4" d="M106.6,101.8c0.2,0.1,0.3,0.1,0.3,0.2c0.9,0.6,2.2,1.1,2.5,1.9c0.3,0.8-0.5,2-0.7,3c-0.9,3.6-1.7,7.2-2.6,10.8  c-0.2,0.8-0.6,1.5-0.9,2.4c-5.1-1.5-9.7-3.6-13.9-7C96.9,109.9,101.9,106.1,106.6,101.8z"></path>
<path class="st4" d="M88.4,110.9c-2.3-3.5-4.4-6.6-6.4-9.6c5.9-2.6,11.4-5.2,17.1-7.7c0.9,1.2,2,2.5,3.2,4.1  C97.8,102,93.2,106.3,88.4,110.9z"></path>
<path class="st5" d="M135.9,91.5c-2.4-0.2-4.4-1.7-5.1-4.2c-0.7-2.2-1-4.4-0.5-6.7c0.4-2.2,1.7-3.1,3.9-2.7c2.5,0.5,5,1.1,7.4,1.7  c0.8,0.2,1.5,0.7,2.2,1.1c1.2,0.8,1.6,1.8,1,3.1c-1.3,2.8-2.8,5.5-5.9,6.8C138,91,136.9,91.2,135.9,91.5z"></path>
<path class="st4" d="M155.2,113.8c-3.7-4.4-7.3-8.6-10.8-12.8c1.9-1.7,4-3.5,6.1-5.3c4.1,3.8,8.3,7.7,12.6,11.8  C160.3,109.7,157.7,111.8,155.2,113.8z"></path>
<path class="st4" d="M136.8,121.6c-3.7,0.4-7.4,0.9-11,1.3c-0.7-5.2-1.3-10.1-2-14.9c2.7-0.4,5.4-0.8,8.1-1.3  C133.6,111.5,135.1,116.4,136.8,121.6z"></path>
<path class="st4" d="M120.7,122.8c-4.2-0.6-8.1-1.1-12.2-1.7c2-5,4-9.8,6-14.7c1.7,0.4,3.4,0.9,4.9,1.3  C119.9,112.6,120.3,117.6,120.7,122.8z"></path>
<path class="st4" d="M150.5,116.7c-3.2,1.3-6.1,2.5-9.2,3.7c-2.1-5-4.2-9.8-6.3-14.7c1.8-0.8,3.6-1.6,5.6-2.5  C143.8,107.6,147,112,150.5,116.7z"></path>
<path class="st4" d="M94.1,85.1c0.7,1.4,1.3,2.6,2,3.9c-1.8,0.9-3.4,1.9-5.1,2.7c-3.3,1.7-6.7,3.3-10.1,5c-0.8,0.4-1.2,0.3-1.7-0.6  c-0.6-1.3-1.5-2.4-2.4-3.9C82.6,89.9,88.3,87.5,94.1,85.1z"></path>
</svg>