<svg xmlns="http://www.w3.org/2000/svg" xmlns:xlink="http://www.w3.org/1999/xlink" id="Layer_1" x="0px" y="0px" viewBox="0 0 195 131" style="enable-background:new 0 0 195 131;" xml:space="preserve">
<style type="text/css">
	.st0{display:none;}
	.st1{display:inline;}
	.st2{display:inline;fill:#FFFFFF;}
	.st3{display:inline;fill:#FFC200;}
	.st4{display:inline;fill:#FFBB0F;}
	.st5{display:inline;fill:#1F274A;}
	.st6{display:inline;fill:#FEFEFE;}
	.st7{fill:#FFC200;}
</style>
<g class="st0">
	<path class="st1" d="M285.5,181.6c-1,4.3-3.7,7-7,9c-3.5,2.1-7.4,3.2-11.4,2.2c-3.2-0.7-6.3-2.1-9.4-3.5c-1.1-0.5-2.3-1.6-2.8-2.8   c-1.2-3-3.7-4.2-6.2-5.7c-2.3-1.4-4.4-3.3-6.2-5.3c-2.4-2.5-3.1-5.6-2.4-9c0.1-0.7,0-1.7-0.4-2.1c-4.5-4.9-4.7-10.5-2.5-16.4   c0.3-0.8,0.4-1.9,0.1-2.7c-1.7-5.4-0.3-10.4,3.9-14.1c0.5-0.4,0.8-1.4,0.7-2c-1-6.4-3.9-12.1-6.5-17.8c-4-8.7-8.1-17.4-11.8-26.2   c-3.2-7.6-5.5-15.5-6.9-23.7c-1.5-8.6-1.5-17.3,1.5-25.5c4.1-11.1,11.4-19.6,21.9-25.2c9.1-4.8,18.7-7.3,29-8.2   C286,1.1,299,8.8,310.5,19.8c6.7,6.5,10.5,14.8,12.6,24c1.5,6.8,1.2,13.4-0.4,20.1c-3.2,13.5-9.3,25.6-16.1,37.5   c-5.3,9.3-9.6,19-11.9,29.4c-0.1,0.7-0.1,1.7,0.3,2.2c2.8,3.5,3.1,7.4,2.4,11.6c-0.2,1,0,2.2,0.3,3.2c0.8,2.8,1.5,5.5,1,8.4   c-0.2,1,0.2,2.2,0.4,3.2c0.4,2,1.1,3.9,1.4,5.9c0.6,5-1.3,9.1-5.4,12.1C292.1,179.5,289,181.1,285.5,181.6z M280.1,52.3   c3-1.6,5.5-3.5,8.3-4.4c5.8-1.8,11.4-1.3,15.8,3.6c4.5,5.1,4.8,11.2,3,17.3c-3,9.8-7.8,18.7-14.3,26.6   c-5.5,6.7-11.1,13.3-15.1,21.1c-3.4,6.5-4.6,13.2-3.2,20.4c0.3,1.7,1,2.3,2.7,1.9c2.5-0.5,5.1-0.5,7.6-1.2c2-0.6,3.9-1.9,5.7-3.1   c0.5-0.3,0.4-1.6,0.6-2.4c1.4-9.1,3.9-17.8,7.9-26c7-14.2,13.8-28.4,18.4-43.6c0.5-1.5,1-3,1.2-4.6c1.1-10-1.2-19.3-6.4-27.9   c-4.4-7.3-11.1-11.9-18.3-16c-6.2-3.5-12.6-6-19.9-6.2c-8.1-0.1-15.9,0.9-23.4,4c-5.1,2.1-10.2,4.2-14.5,7.7   c-10.3,8.2-15,19-15.3,31.9c-0.2,11.5,2.2,22.6,6.2,33.3c3.7,9.8,8.1,19.2,12.1,28.9c2.7,6.3,5,12.7,5.2,19.7   c0,0.8,0.9,1.7,1.6,2.2c3.2,2.1,7,2.7,10.7,3.4c1.2,0.2,1.4-0.6,1.4-1.4c-0.1-3.2,0-6.4-0.5-9.5c-1.3-8.7-5-16.7-8.9-24.5   c-5.2-10.4-10.1-20.7-11.1-32.5c-0.4-5-0.1-9.8,2.2-14.5c4.6-9.4,17.2-12.6,24-5.8c0.3,0.3,1.3,0.1,1.8-0.2   c2.6-1.7,5.3-2.3,8.4-1.9C276.6,49,278.7,50.5,280.1,52.3z M272.4,139.4c-0.1-0.6-0.1-1.1-0.2-1.4c-2.1-6.4-1.7-12.9-0.2-19.2   c1.5-6.6,5.1-12.3,9.1-17.6c6.4-8.5,12.8-16.9,18-26.3c2.6-4.6,4.6-9.4,4.1-14.9c-0.4-4.6-3-7.8-7.4-8.9c-4.7-1.2-8.6,0.2-12.2,3.3   c-0.9,0.8-1,1.4-0.5,2.5c1.7,3.7,2.4,7.7,2.2,11.8c-0.2,3.1-0.8,6.2-2.5,8.9c-1,1.5-2.3,2.5-4.1,2.3c-1.8-0.2-2.8-1.5-3.3-3.1   c-0.3-1-0.7-2-0.7-3c-0.5-6.1,0.1-12.1,3.4-17.5c0.3-0.4,0.3-1.2,0.1-1.6c-2.2-3.6-7.8-4.3-11-1.5c-0.7,0.6-0.8,1.2-0.4,2   c2.5,4.9,3.2,10.2,3.4,15.6c0.1,2.8-0.5,5.5-2.3,7.8c-1.9,2.4-4.9,2.4-6.7-0.1c-0.5-0.7-1-1.6-1.2-2.4c-1.9-7.3-1-14.4,2.3-21.2   c0.6-1.2,0.5-1.8-0.5-2.6c-3.5-2.9-7.4-3-11.4-1.3c-5.6,2.3-8.9,8.6-8.2,15.4c0.5,5.7,1.5,11.4,3.5,16.7c2.8,7.3,6,14.4,8.9,21.7   c3.5,8.7,6.6,17.5,6.1,27.1c-0.1,2.5-0.6,4.9-1,7.6C263.8,139.4,268,139.4,272.4,139.4z M239.3,149.8c-1.4,4.3-0.4,8.1,2.1,11.5   c0.6,0.8,1.5,1.4,2.4,1.9c4.3,1.9,8.8,2.9,13.6,2.1c0.9-0.1,2-0.2,2.1,1.1c0.1,1.3-1,1.3-1.9,1.5c-0.4,0.1-0.7,0.1-1.1,0.1   c-4.8-0.5-9.6-1-14.5-1.5c0-0.1-0.1,0.2-0.1,0.4c-0.3,3.7,1.8,6.2,4.5,8.3c6.9,5.4,14.9,5.9,23.2,4.8c4.1-0.5,7.9-1.8,12.3-1.2   c5,0.7,9.5-2.4,13-6c3.5-3.5,2.4-8,2.1-12.8c-0.9,1.2-1.5,2.1-2.1,2.8c-3.5,4-8.3,5.6-13.2,7.1c-0.5,0.1-1.1-0.4-1.7-0.6   c0.4-0.5,0.7-1.1,1.1-1.3c3.1-1.6,6.4-2.8,9.3-4.6c4.3-2.7,6.4-9,5.1-13.9c0-0.2-0.2-0.4-0.4-0.6c-0.5,0.5-1,0.8-1.3,1.2   c-4.6,4.9-10.5,6.1-16.9,6c-0.5,0-0.9-0.6-1.3-0.9c0.4-0.4,0.8-0.7,1.3-1c0.2-0.1,0.5-0.1,0.7-0.1c3.8,0,7.3-1.1,10.7-2.8   c5-2.6,7.6-8.4,6.1-13.8c-0.2-0.6-0.5-1.1-0.8-1.8c-3.7,4.8-5.6,6.4-9.5,7.1c-7.7,1.4-15.3,2.9-23.2,1.8c-4.9-0.7-9.8-1.6-14.2-4   c-2-1.1-3.7-2.7-5.9-4.4c-0.3,1.7-1,3.4-0.7,4.9c0.5,2.5,1.4,4.9,2.5,7.2c0.4,0.9,1.4,1.8,2.4,2.1c2.9,0.9,5.9,1.4,8.8,2.2   c0.6,0.2,1.1,0.8,1.7,1.2c-0.6,0.4-1.1,1.1-1.7,1.1c-5.2,0.1-10.2-0.5-14-4.8C239.6,149.9,239.5,149.9,239.3,149.8z M282.5,182.4   c-4.1,0.7-8.4,1.6-12.7,1.9c-4.3,0.3-8.6,0.1-13,0.1C262.5,191,275,192.6,282.5,182.4z M264.9,56.6c-2.4,3.8-3.8,12.1-2.9,16.9   c0.2,1.1,0.5,2.2,1,3.1c0.8,1.5,2.1,1.5,2.7,0c0.7-1.5,1.5-3.1,1.4-4.7c-0.2-4.3-0.8-8.6-1.2-12.9   C265.7,58.3,265.3,57.5,264.9,56.6z M278.6,76.2c3.3-5.6,3.1-11.4,1.5-17.3C277.2,64.4,276.9,70.3,278.6,76.2z"></path>
	<path class="st1" d="M377.5-20.2c1.9,0,3.4,1.3,3.6,3c0.2,1.9-0.9,3.5-2.9,3.8c-5,0.9-10.1,1.8-15.1,2.8   c-15.3,2.8-29,9.1-40.9,19.1c-1.9,1.6-3.5,3.3-5.4,5c-0.4,0.3-1,0.4-1.5,0.6c0-0.6-0.2-1.3,0.1-1.7c3.2-5,7.6-8.9,12.3-12.4   c10.8-8.3,23-13.8,36.2-17c4-1,8.1-1.9,12.1-2.8C376.6-20,377.2-20.1,377.5-20.2z"></path>
	<path class="st1" d="M372.1,45.5c9.2-0.2,18.6,2,28,4.7c2,0.6,3,2.1,2.5,3.8c-0.5,1.7-2,2.5-4.1,2c-6.7-1.6-13.4-3.6-20.1-4.7   c-12.7-2.2-25.3-1.8-37.7,2.3c-0.5,0.2-1.1-0.2-1.7-0.3c0.4-0.5,0.7-1.3,1.2-1.5C350.3,48.2,360.5,45.2,372.1,45.5z"></path>
	<path class="st1" d="M218.6,114.3c5.1,0.9,10.3,1.8,15.4,2.8c0.5,0.1,0.9,0.9,1.4,1.4c-0.6,0.3-1.3,0.9-1.8,0.8   c-6.2-1.1-12.3,0.4-18.4,1.3c-8.5,1.4-16.2,5-23.9,8.4c-0.5,0.2-1,0.5-1.5,0.6c-1.9,0.6-3.8-0.2-4.6-1.9c-0.8-1.8-0.1-3.9,1.8-4.8   c10.1-4.4,20.3-8.3,31.5-8C218.6,114.7,218.6,114.5,218.6,114.3z"></path>
	<path class="st1" d="M283.8-4.6c0.8-3,1.4-5.8,2.2-8.5c4.3-13.3,11.6-24.8,21-35.1c1.4-1.6,2.7-3.3,4.1-4.9c1.5-1.7,3.8-2,5.3-0.6   s1.4,3.5-0.1,5.2c-5.1,5.5-10.4,10.7-15.2,16.4c-6.9,8.2-11.7,17.7-15.6,27.7c-0.2,0.5-0.6,0.9-1,1.3   C284.4-3.7,284.1-4.1,283.8-4.6z"></path>
	<path class="st1" d="M339,97c11.8,1.5,23.4,2,34.4,6c7.1,2.6,13.2,6.9,19.3,11.2c1.7,1.2,1.8,3.1,0.7,4.5c-1.1,1.4-2.9,1.6-4.6,0.4   c-2.5-1.7-5-3.5-7.5-5.3c-6.8-5-14.4-8.1-22.4-10.6c-6.6-2-13.2-3.5-20-4.3c-0.5-0.1-0.9-0.7-1.4-1C338.1,97.5,338.7,97.2,339,97z"></path>
	<path class="st1" d="M167.5,3.1c0.3,0.1,1.1,0.3,1.8,0.8c9,5.8,18.3,11.3,27,17.6c5.6,4,11.5,7.9,15,14.3c0.4,0.6,0.7,1.3,0.9,2   c0.1,0.3-0.1,0.9-0.3,1c-0.3,0.1-0.9-0.1-1.1-0.3c-6.3-9.7-16.7-13.8-26.2-19c-6.2-3.5-12.7-6.5-19.1-9.7c-1.6-0.8-2.4-2.5-1.9-4.1   C164.1,3.9,165.2,3.1,167.5,3.1z"></path>
	<path class="st1" d="M186.4,73.3c5.4,0,10.7-0.3,16.1,0.1c5.2,0.4,10.1,2.1,14.4,5.2c0.5,0.4,1,0.8,1.3,1.3   c0.2,0.4,0.2,0.9,0.3,1.4c-0.6,0-1.3,0.3-1.6,0c-3.7-3.2-8.2-3.6-12.8-3.8c-10.1-0.6-19.9,1-29.6,3.9c-2.2,0.7-4.4,1.3-6.7,1.9   c-1.8,0.5-3.3-0.4-3.8-1.9c-0.6-1.7,0.2-3.4,2.1-3.9c6.7-1.7,13.5-3.2,20.3-4.8C186.3,72.8,186.4,73,186.4,73.3z"></path>
	<path class="st1" d="M213.1-38.9c0.1-2,0.9-3.2,2.5-3.6s3.1,0.3,3.9,2c2.2,4.4,4.2,9,6.6,13.3c4.5,8,9.1,16,13.8,24   c0.4,0.7,0.9,1.3,1.2,2.1c0.2,0.6,0.2,1.3,0.3,1.9c-0.5-0.3-1.2-0.5-1.5-0.9c-4.3-5.7-8.8-11.4-12.9-17.3   c-4.5-6.4-8.7-13-12.9-19.5C213.5-37.7,213.2-38.5,213.1-38.9z"></path>
	<path class="st1" d="M345.1,143.4c-0.7,0.8-1.1,1.7-1.7,1.9c-0.7,0.2-1.9-0.1-2.4-0.6c-1.6-1.4-2.8-3.3-4.4-4.7   c-4.9-4.5-9.9-8.9-14.9-13.3c-1-0.9-2.4-1.2-3.5-1.9c-0.5-0.3-0.9-0.9-1.4-1.4c0.7-0.1,1.5-0.4,2.1-0.2c2.1,0.9,4.3,1.8,6.1,3.2   c5.1,3.9,10,8,15,12c1.2,1,2.4,1.9,3.5,2.9C344.1,141.9,344.5,142.6,345.1,143.4z"></path>
	<path class="st2" d="M280.1,52.3c-1.5-1.8-3.6-3.4-6.5-3.7c-3-0.4-5.8,0.2-8.4,1.9c-0.5,0.3-1.5,0.5-1.8,0.2   c-6.8-6.9-19.4-3.6-24,5.8c-2.3,4.6-2.7,9.4-2.2,14.5c1,11.8,6,22.1,11.1,32.5c3.9,7.8,7.5,15.8,8.9,24.5c0.5,3.1,0.4,6.3,0.5,9.5   c0,0.8-0.2,1.7-1.4,1.4c-3.7-0.7-7.5-1.2-10.7-3.4c-0.7-0.5-1.6-1.4-1.6-2.2c-0.2-7-2.5-13.4-5.2-19.7c-4.1-9.6-8.5-19.1-12.1-28.9   c-4-10.7-6.4-21.8-6.2-33.3c0.3-12.9,5-23.8,15.3-31.9c4.4-3.4,9.4-5.6,14.5-7.7c7.6-3.1,15.4-4.1,23.4-4   c7.3,0.1,13.7,2.6,19.9,6.2c7.1,4.1,13.9,8.7,18.3,16c5.2,8.6,7.5,17.8,6.4,27.9c-0.2,1.6-0.7,3.1-1.2,4.6   C312.8,77.8,306,92,299,106.2c-4,8.2-6.5,17-7.9,26c-0.1,0.8-0.1,2-0.6,2.4c-1.8,1.2-3.7,2.4-5.7,3.1c-2.4,0.7-5.1,0.8-7.6,1.2   c-1.7,0.3-2.3-0.2-2.7-1.9c-1.4-7.2-0.2-13.9,3.2-20.4c4-7.8,9.7-14.4,15.1-21.1c6.5-7.9,11.4-16.8,14.3-26.6   c1.9-6,1.5-12.2-3-17.3c-4.4-4.9-10-5.4-15.8-3.6C285.6,48.8,283.1,50.7,280.1,52.3z"></path>
	<path class="st3" d="M272.4,139.4c-4.4,0-8.6,0-12.8,0c0.4-2.7,0.9-5.1,1-7.6c0.5-9.6-2.7-18.4-6.1-27.1   c-2.9-7.3-6.1-14.4-8.9-21.7c-2-5.4-3-11-3.5-16.7c-0.6-6.8,2.6-13.1,8.2-15.4c4-1.6,7.8-1.5,11.4,1.3c1,0.8,1,1.4,0.5,2.6   c-3.3,6.8-4.2,13.8-2.3,21.2c0.2,0.9,0.7,1.7,1.2,2.4c1.8,2.5,4.8,2.5,6.7,0.1c1.8-2.3,2.4-5,2.3-7.8c-0.2-5.4-0.9-10.7-3.4-15.6   c-0.4-0.9-0.3-1.4,0.4-2c3.2-2.8,8.7-2.1,11,1.5c0.2,0.4,0.2,1.2-0.1,1.6c-3.3,5.4-3.9,11.4-3.4,17.5c0.1,1,0.4,2,0.7,3   c0.5,1.6,1.5,2.9,3.3,3.1c1.8,0.2,3.1-0.9,4.1-2.3c1.7-2.7,2.4-5.7,2.5-8.9c0.2-4.1-0.5-8.1-2.2-11.8c-0.5-1.1-0.3-1.7,0.5-2.5   c3.5-3.1,7.5-4.4,12.2-3.3c4.4,1.1,7,4.3,7.4,8.9c0.5,5.5-1.5,10.3-4.1,14.9c-5.2,9.3-11.6,17.8-18,26.3c-4.1,5.3-7.6,11-9.1,17.6   c-1.5,6.3-1.8,12.8,0.2,19.2C272.3,138.3,272.3,138.7,272.4,139.4z"></path>
	<path class="st2" d="M239.3,149.8c0.2,0.1,0.4,0.1,0.4,0.2c3.8,4.2,8.8,4.8,14,4.8c0.6,0,1.2-0.7,1.7-1.1c-0.6-0.4-1.1-1-1.7-1.2   c-2.9-0.8-5.9-1.3-8.8-2.2c-0.9-0.3-2-1.2-2.4-2.1c-1-2.3-2-4.7-2.5-7.2c-0.3-1.5,0.4-3.2,0.7-4.9c2.2,1.7,3.9,3.2,5.9,4.4   c4.4,2.5,9.2,3.3,14.2,4c7.9,1.1,15.6-0.3,23.2-1.8c3.9-0.7,5.8-2.3,9.5-7.1c0.3,0.7,0.6,1.3,0.8,1.8c1.5,5.4-1.1,11.2-6.1,13.8   c-3.4,1.7-6.9,2.8-10.7,2.8c-0.2,0-0.5-0.1-0.7,0.1c-0.5,0.3-0.9,0.7-1.3,1c0.5,0.3,0.9,0.9,1.3,0.9c6.4,0.1,12.3-1.1,16.9-6   c0.4-0.4,0.8-0.7,1.3-1.2c0.2,0.3,0.4,0.4,0.4,0.6c1.3,4.9-0.8,11.2-5.1,13.9c-2.9,1.8-6.2,3.1-9.3,4.6c-0.5,0.3-0.8,0.9-1.1,1.3   c0.6,0.2,1.2,0.7,1.7,0.6c4.9-1.5,9.7-3.1,13.2-7.1c0.7-0.8,1.2-1.6,2.1-2.8c0.2,4.8,1.3,9.3-2.1,12.8c-3.6,3.6-8,6.7-13,6   c-4.4-0.6-8.3,0.7-12.3,1.2c-8.3,1.1-16.3,0.6-23.2-4.8c-2.7-2.1-4.8-4.6-4.5-8.3c0-0.2,0.1-0.4,0.1-0.4c4.9,0.5,9.7,1,14.5,1.5   c0.4,0,0.7,0,1.1-0.1c0.9-0.2,2-0.1,1.9-1.5c-0.1-1.3-1.2-1.2-2.1-1.1c-4.8,0.8-9.2-0.2-13.6-2.1c-0.9-0.4-1.8-1.1-2.4-1.9   C238.8,157.9,237.8,154.1,239.3,149.8z"></path>
	<path class="st2" d="M282.5,182.4c-7.6,10.2-20,8.6-25.7,2c4.3,0,8.7,0.3,13-0.1C274.2,184,278.4,183.1,282.5,182.4z"></path>
	<path class="st3" d="M264.9,56.6c0.3,0.9,0.8,1.7,0.9,2.5c0.5,4.3,1.1,8.6,1.2,12.9c0.1,1.5-0.7,3.2-1.4,4.7c-0.7,1.5-2,1.4-2.7,0   c-0.5-0.9-0.8-2.1-1-3.1C261.1,68.7,262.6,60.4,264.9,56.6z"></path>
	<path class="st3" d="M278.6,76.2c-1.7-5.9-1.4-11.8,1.5-17.3C281.7,64.8,282,70.6,278.6,76.2z"></path>
</g>
<image style="display:none;overflow:visible;enable-background:new    ;" width="640" height="640" xlink:href="B8E92719.jpeg" transform="matrix(0.1267 0 0 0.1267 448.1094 -10.8432)">
</image>
<g class="st0">
	<path class="st1" d="M196.2,59.4c-1.2-0.5-2.4-1-3.5-1.6c-8.8-4.5-14.1-11.6-16.5-21.1c-0.5-1.8-0.7-3.7-0.9-5.5   c-0.2-1.7,0.3-2.8,1.2-2.9c1.4-0.2,2,0.9,2.5,1.8c3.1,5.9,8.1,10.1,13.8,13.2c3.5,1.9,7.1,3.5,10.6,5.3c0.7,0.3,1.5,0.6,2.3,0.8   c1.7,0.4,3.2,0.2,4.6-1.1c1.3-1.3,2.6-2.5,3.8-3.6c-2.3-2.4-4.4-4.6-6.4-6.8c-3-3.3-5.1-7.2-6.7-11.4c-2.3-6.1-3.1-12.4-2.4-19   c0.2-1.8,0.8-2.8,1.8-2.9c1.1-0.2,2.1,0.7,2.6,2.3c2.8,8.7,7.4,16.3,13.4,23.2c1.5,1.7,3.1,3.2,4.8,4.7c1.5,1.4,3.6,1.2,5.5-0.2   c1.9-1.4,3.8-2.7,5.8-4.1c1.1-0.8,1.5-1.6,0.9-2.7c-1.2-2.3-2.5-4.5-3.8-6.8c-3.2-5.6-6-11.3-6.9-17.7c-0.6-4.7-0.2-9.3,1.7-13.6   c0.5-1,0.8-2.6,2.3-2.3c1.5,0.2,1.5,1.8,1.8,3c0.8,3.6,1.5,7.3,2.5,10.8c1.7,5.7,4.4,10.9,7.6,15.8c1.5,2.3,3.1,4.5,4.7,6.8   c0.4,0.6,0.8,0.7,1.4,0.4c1.4-0.6,2.7-1.2,4.1-1.6c1.9-0.7,3.9-1.3,5.8-1.9c2.8-0.9,3.3-1.9,2.3-4.7c-1.1-3.3-2.5-6.5-3.3-9.8   c-1.8-7.2-1.5-14.5,0-21.8c0.6-3.1,1.8-6,4.5-7.9c0.3-0.2,0.7-0.4,1-0.6c2.5-1.1,3.9-0.1,3.6,2.5c-0.2,2.1-0.6,4.1-0.9,6.2   c-0.5,3.8-0.2,7.5,0.8,11.2c1.5,5.8,3.1,11.6,4.8,17.4c0.7,2.5,2.1,3.1,4.7,2.8c2.5-0.3,5-0.4,7.5-0.5c1.7-0.1,2.6-0.7,2.9-2.3   c0.2-1.2,0.2-2.5,0.2-3.7c-0.6-10.9,2.3-20.9,8.3-29.9c0.7-1.1,1.5-2.1,2.3-3c0.6-0.8,1.4-1.2,2.4-0.8c1,0.4,1.4,1.3,1.4,2.3   c-0.1,0.9-0.3,1.8-0.6,2.7c-3.6,9.7-5.1,19.7-4.5,30c0,0.8,0,1.7,0.1,2.5c0.1,1.4,0.7,2,2.1,2.2c2.3,0.3,4.6,0.7,7,1   c0.7,0.1,1-0.1,1.1-0.8c0.8-4.6,2-9,3.9-13.3c2.6-5.9,6.4-10.8,11.6-14.5c1-0.7,2.3-1.1,3.5-1.3c1.5-0.2,2.7,1.2,2.3,2.8   c-0.3,1.1-0.8,2.3-1.5,3.2c-4.9,6.3-8.1,13.3-9.8,21.1c-0.3,1.5-0.4,3-0.6,4.5c-0.1,1.1,0.3,1.8,1.4,2.2c1.3,0.5,2.4,1.2,3.7,1.8   c1.6,0.8,2.5,0.4,3.5-1.1c1.9-3.2,3.7-6.4,5.7-9.4c2.4-3.6,5.2-6.8,8.7-9.3c0.7-0.5,1.5-1.1,2.4-1.3c0.7-0.1,1.7,0.2,2.2,0.7   c0.3,0.3,0.3,1.4,0,1.9c-1.4,2.1-2.8,4.2-4.4,6.1c-3.6,4.3-6.4,9.1-8.6,14.3c-0.7,1.7-0.5,2.6,1.1,3.8c1.5,1.2,3,2.3,4.5,3.3   c1.6,1.1,2.4,0.8,3.5-0.8c3.2-4.6,6.8-8.9,11.8-11.7c1.5-0.8,3.2-1.3,4.9-1.8c1.1-0.3,2.1,0.3,2.5,1.5c0.4,1-0.3,1.8-1.1,2.3   c-2.9,2-5.7,4-7.8,6.8c-1.8,2.3-3.4,4.8-4.9,7.3c-0.9,1.5-0.8,2.5,0.5,3.8c1.5,1.4,3.3,2.7,5,3.9c0.9,0.7,1.7,0.4,2.4-0.4   c2-2.1,3.8-4.2,6-6.1c2.7-2.4,5.9-4,9.6-3.9c1,0,2,0.1,2.3,1.3c0.3,1.1-0.4,1.8-1.3,2.4c-2.2,1.4-4.5,2.7-6.5,4.4   c-2,1.7-3.8,3.8-5.5,5.8c-1.3,1.5-1.1,2.9,0.4,4.2c1.4,1.2,2.9,2.3,4.5,3.4c1,0.7,1.8,0.2,2.6-0.4c2-1.5,4-3,6.1-4.3   c1.3-0.8,2.9-1.3,4.4-1.9c0.8-0.3,1.8-0.3,2.1,0.5c0.3,0.6,0.2,1.7-0.2,2.2c-1.4,1.5-2.9,2.9-4.5,4.3c-1.4,1.3-2.7,2.6-3.3,4.5   c-0.5,1.6-0.3,2.5,1.1,3.4c4.4,3.1,9,5.3,14.5,5c0.8,0,1.5,0.1,2.3,0.1c1.8,0.1,3.4,0.8,4.1,2.5c0.8,1.8,0.3,3.6-1,4.9   c-1.1,1.2-2.6,2.1-4,2.9c-4.6,2.3-9.5,2.7-14.6,2.3c-1.7-0.1-3.4-0.2-5-0.4c-4-0.5-6.7,1.4-8.8,4.6c-2.1,3.3-4.2,6.6-6.6,9.7   c-4,5.1-8.7,9.6-13.9,13.5c-4,2.9-8.1,5.5-12.6,7.5c-6.4,2.9-13.2,4.8-20.2,5.7c-16.5,2.2-32.6,0.7-48.4-4.4   c-6.8-2.2-13.3-5.4-19.2-9.4c-4.6-3.1-8.7-6.9-12.5-11c-2.7-3-5.5-5.9-7.4-9.5c-1.2-2.1-2.2-4.4-3-6.8c-1-2.9-2.3-4.1-5.3-4.4   c-3.5-0.3-6.7,0.9-9.9,2.1c-2.9,1.1-5.9,2.3-8.9,3c-5.5,1.2-10.5-1.7-12.6-6.9c-1.2-3.1,0.1-5.1,3.5-5.3c2-0.1,4-0.1,5.9-0.5   c3.3-0.7,6.2-2.4,8.9-4.4C193.2,61.4,194.7,60.5,196.2,59.4z M212.6,69.9c0.9,2.1,1.7,4,2.4,6c1.8,4.7,4,9.1,7.2,13   c6.6,7.9,15.1,13.4,24.4,17.5c8.5,3.7,17.4,6,26.6,7.2c13.7,1.7,27.1,1,40.2-3.5c7.8-2.7,14.6-6.9,20.7-12.4   c5.2-4.7,9.7-10.1,13.5-16c1.6-2.5,3-5.1,4.6-7.7c-4.8-3.1-9.4-6.1-14.1-9.1c-0.1,0.3-0.3,0.5-0.4,0.7c-2,5.3-5.2,9.8-9.3,13.6   c-4.8,4.5-10.3,7.7-16.4,10.2c-7.4,3-15.1,4.7-23,5.2c-7.4,0.5-14.8-0.2-22-1.9c-8.9-2.1-17.4-5.2-25-10.6   c-4.1-2.9-7.6-6.3-10-10.8c-1.6-3.2-3.2-6.4-4.9-9.7C222.3,64.3,217.4,67.1,212.6,69.9z M311.6,57.6c4.5,3.7,8.9,7.4,13.6,11.3   c2.1-2.9,4.1-5.7,6.3-8.7c-5.8-3.4-11.4-6.6-16.9-9.8C313.5,53,312.5,55.3,311.6,57.6z M265.5,66.7c-4.7,4.3-9.7,8.1-15.3,11.3   c4.3,3.3,8.8,5.4,13.9,7c0.3-0.8,0.7-1.6,0.9-2.4c0.9-3.6,1.8-7.2,2.6-10.8c0.3-1,1-2.2,0.7-3c-0.3-0.8-1.6-1.3-2.5-1.9   C265.8,66.8,265.7,66.8,265.5,66.7z M247.3,75.8c4.9-4.6,9.4-8.9,14-13.2c-1.2-1.6-2.3-2.9-3.2-4.1c-5.7,2.6-11.3,5.1-17.1,7.7   C242.9,69.2,245,72.4,247.3,75.8z M294.9,56.4c1-0.3,2.1-0.5,3.1-0.9c3.1-1.3,4.6-4,5.9-6.8c0.6-1.3,0.2-2.3-1-3.1   c-0.7-0.4-1.4-0.9-2.2-1.1c-2.5-0.6-4.9-1.2-7.4-1.7c-2.2-0.4-3.4,0.5-3.9,2.7c-0.5,2.3-0.2,4.6,0.5,6.7   C290.5,54.7,292.5,56.2,294.9,56.4z M314.1,78.8c2.5-2,5.1-4.1,7.8-6.3c-4.3-4.1-8.5-8-12.6-11.8c-2.1,1.8-4.1,3.6-6.1,5.3   C306.8,70.1,310.3,74.4,314.1,78.8z M295.7,86.5c-1.7-5.2-3.2-10-4.8-14.9c-2.8,0.4-5.5,0.9-8.1,1.3c0.6,4.8,1.3,9.7,2,14.9   C288.3,87.4,292,86.9,295.7,86.5z M279.7,87.7c-0.4-5.3-0.9-10.2-1.3-15.2c-1.5-0.4-3.2-0.8-4.9-1.3c-2,4.9-4,9.7-6,14.7   C271.5,86.6,275.5,87.1,279.7,87.7z M309.4,81.6c-3.4-4.7-6.6-9.1-9.8-13.5c-2,0.9-3.8,1.7-5.6,2.5c2.1,4.9,4.1,9.7,6.3,14.7   C303.3,84.1,306.2,82.9,309.4,81.6z M253,50c-5.8,2.4-11.5,4.8-17.2,7.2c0.9,1.5,1.7,2.6,2.4,3.9c0.4,0.9,0.9,1,1.7,0.6   c3.3-1.7,6.7-3.3,10.1-5c1.7-0.9,3.4-1.8,5.1-2.7C254.4,52.6,253.8,51.4,253,50z"></path>
	<path class="st1" d="M262.1,131.9c-0.6,3.6-1.3,7.3-1.9,10.9c-0.6,3.2-1.2,6.4-1.9,9.6c-0.2,0.8-0.6,1.6-1,2.3   c-1.3,2.1-3.6,2.1-4.9-0.1c-1.1-1.7-1.2-3.6-0.9-5.4c0.9-5.5,1.9-11,2.9-16.5c0.3-1.5,0.6-3,1.2-4.4c0.7-1.8,1.9-2.5,3.4-2.3   c1.4,0.2,2.5,1.4,2.7,3.2c0.1,0.9,0.2,1.8,0.2,2.6C261.9,131.9,262,131.9,262.1,131.9z"></path>
	<path class="st1" d="M351.4,140.4c-1.7-0.1-3.3-1.4-4.5-3c-3.2-4.2-6.3-8.5-9.4-12.7c-1-1.4-2-2.8-2.8-4.3   c-0.5-0.9-0.7-2.1-0.6-3.1c0.3-1.9,2.4-2.7,4.2-1.8c2,0.9,3.5,2.5,4.8,4.2c3.4,4.5,6.6,9.1,9.8,13.7c0.7,1,1.2,2.2,1.5,3.4   C355.3,139,354.2,140.4,351.4,140.4z"></path>
	<path class="st1" d="M353.3,99.1c1.8,0.1,3.4,1.1,4.9,2.2c1.5,1.2,3,2.4,4.5,3.8c3,2.8,6.1,5.5,9,8.4c0.9,0.9,1.6,2,2.4,3.1   c0.6,0.9,0.9,2,0.2,3c-0.8,1.2-2.1,1.6-3.4,1.2c-1.5-0.4-3-1-4.1-2c-2.8-2.3-5.4-4.7-8.1-7.1c-2.2-2-4.5-4-6.5-6.1   c-0.8-0.8-1.4-1.9-1.8-2.9C349.7,100.8,351.2,99.1,353.3,99.1z"></path>
	<path class="st1" d="M323.5,150.2c-0.1,1.6-0.2,3-1.6,3.6c-1.2,0.6-3.1-0.1-4.1-1.3c-1.9-2.1-2.5-4.8-3.3-7.4   c-1.4-4.6-2.8-9.3-4.1-14c-0.5-1.6-0.9-3.3,0-4.9c1-1.8,3.6-2.1,4.8-0.4c1.3,1.9,2.5,3.9,3.2,6.1c1.7,5.1,3.1,10.4,4.6,15.6   C323.4,148.5,323.4,149.5,323.5,150.2z"></path>
	<path class="st1" d="M285.1,143.8c0-3.3-0.1-6.6,0-9.9c0.1-2.3,1.2-3.6,2.9-3.9c1.3-0.2,2.4,0.2,2.8,1.3c0.7,1.8,1.3,3.8,1.7,5.7   c0.3,1.5,0.3,3.1,0.3,4.6c0.1,3.8,0.3,7.7,0.2,11.5c0,1.8-0.3,3.6-0.9,5.3c-0.7,2.3-3.1,2.7-4.8,0.9c-1.6-1.7-1.9-3.9-2-6   c-0.1-3.1,0-6.3,0-9.4C285.3,143.8,285.2,143.8,285.1,143.8z"></path>
	<path class="st1" d="M224.4,142.9c0.8-2,1.3-4,2.3-5.9c2.1-4.1,4.3-8.2,6.5-12.3c0.9-1.7,2-3.4,3.2-4.9c0.9-1.2,2.3-1.2,3.6-0.6   c1,0.4,1.7,1.8,1.6,3.1c-0.1,0.6-0.1,1.3-0.3,1.9c-1,2.4-1.9,4.8-3,7.1c-1.8,3.7-3.8,7.4-5.8,11c-0.7,1.2-1.6,2.3-2.5,3.3   c-1.8,1.9-4.1,1.4-4.9-1.1c-0.2-0.5-0.2-1.1-0.3-1.6C224.6,143,224.5,143,224.4,142.9z"></path>
	<path class="st1" d="M183.7,109.5c0.3-0.6,0.8-2,1.7-2.9c1.9-1.8,3.9-3.5,6-5.1c3.3-2.5,6.7-5,10.1-7.3c1.1-0.8,2.4-1.4,3.7-1.8   c1.3-0.4,2.4,0,3.2,1.2c0.8,1.1,0.7,2.3,0,3.3c-1.3,1.7-2.6,3.4-4.2,4.7c-4.5,3.5-9.2,6.8-13.9,10.1c-0.9,0.6-2,1-3.1,1.3   C185.1,113.6,183.8,112.5,183.7,109.5z"></path>
	<path class="st1" d="M199.7,129.9c0.1-2.2,1.4-4,2.8-5.7c3.6-4.3,7.3-8.5,11-12.6c1.1-1.2,2.4-2.2,3.9-2.9c1.9-0.9,3.9,0.7,3.7,2.8   c-0.1,1.1-0.4,2.3-1,3.1c-2,2.8-4.2,5.6-6.4,8.3c-2.1,2.6-4.4,5.1-6.6,7.6c-0.7,0.8-1.7,1.5-2.6,2.1c-0.9,0.7-2.1,1.1-3.1,0.5   C200.1,132.5,199.7,131.3,199.7,129.9z"></path>
	<path class="st3" d="M311.6,57.6c0.9-2.3,1.9-4.6,2.9-7.2c5.5,3.2,11.1,6.4,16.9,9.8c-2.2,3-4.1,5.8-6.3,8.7   C320.6,65.1,316.1,61.4,311.6,57.6z"></path>
	<path class="st3" d="M265.5,66.7c0.2,0.1,0.3,0.1,0.3,0.2c0.9,0.6,2.2,1.1,2.5,1.9c0.3,0.8-0.5,2-0.7,3c-0.9,3.6-1.7,7.2-2.6,10.8   c-0.2,0.8-0.6,1.5-0.9,2.4c-5.1-1.5-9.7-3.6-13.9-7C255.8,74.8,260.8,71,265.5,66.7z"></path>
	<path class="st3" d="M247.3,75.8c-2.3-3.5-4.4-6.6-6.4-9.6c5.9-2.6,11.4-5.2,17.1-7.7c0.9,1.2,2,2.5,3.2,4.1   C256.7,66.9,252.2,71.2,247.3,75.8z"></path>
	<path class="st2" d="M294.9,56.4c-2.4-0.2-4.4-1.7-5.1-4.2c-0.7-2.2-1-4.4-0.5-6.7c0.4-2.2,1.7-3.1,3.9-2.7c2.5,0.5,5,1.1,7.4,1.7   c0.8,0.2,1.5,0.7,2.2,1.1c1.2,0.8,1.6,1.8,1,3.1c-1.3,2.8-2.8,5.5-5.9,6.8C296.9,55.9,295.9,56.1,294.9,56.4z"></path>
	<path class="st3" d="M314.1,78.8c-3.7-4.4-7.3-8.6-10.8-12.8c1.9-1.7,4-3.5,6.1-5.3c4.1,3.8,8.3,7.7,12.6,11.8   C319.2,74.6,316.6,76.8,314.1,78.8z"></path>
	<path class="st3" d="M295.7,86.5c-3.7,0.4-7.4,0.9-11,1.3c-0.7-5.2-1.3-10.1-2-14.9c2.7-0.4,5.4-0.8,8.1-1.3   C292.5,76.4,294.1,81.3,295.7,86.5z"></path>
	<path class="st3" d="M279.7,87.7c-4.2-0.6-8.1-1.1-12.2-1.7c2-5,4-9.8,6-14.7c1.7,0.4,3.4,0.9,4.9,1.3   C278.8,77.5,279.2,82.5,279.7,87.7z"></path>
	<path class="st3" d="M309.4,81.6c-3.2,1.3-6.1,2.5-9.2,3.7c-2.1-5-4.2-9.8-6.3-14.7c1.8-0.8,3.6-1.6,5.6-2.5   C302.7,72.5,306,76.9,309.4,81.6z"></path>
	<path class="st3" d="M253,50c0.7,1.4,1.3,2.6,2,3.9c-1.8,0.9-3.4,1.9-5.1,2.7c-3.3,1.7-6.7,3.3-10.1,5c-0.8,0.4-1.2,0.3-1.7-0.6   c-0.6-1.3-1.5-2.4-2.4-3.9C241.6,54.8,247.3,52.4,253,50z"></path>
</g>
<g class="st0">
	<path class="st1" d="M339.5,30.3c6.7-0.2,13.5-0.5,20.3-0.7c12.7-0.3,25.4-0.7,38-0.9c2.4,0,4.9,0.3,7.3,0.8   c2.9,0.6,5.1,2.5,6.8,4.9c3.7,5.2,5.6,11,5.5,17.3c0,2.9-0.6,5.8-2.7,8.1c-0.8,0.9-1.2,1.8-0.4,2.9c2.9,3.8,3.5,8.2,3.2,12.8   c-0.3,5.1-1.9,9.7-5,13.7c-0.8,1-1.7,1.8-2.6,2.8c8.3,11.2,3.9,26.8-7.8,31.3c2.3,2.4,3.6,5.2,4.2,8.4c1.1,6.2-0.6,11.6-5,16.1   c-4.7,4.9-10.6,7.5-17.2,8.7c-6.1,1.1-12.2,1.1-18.4,1c-3.8-0.1-7.5-0.2-11.3-0.2c-11.2,0-22.3,0-33.5,0c-7.5,0-15,0-22.5-0.1   c-6.5-0.1-13-0.6-19.4-2.2c-5.6-1.5-10.8-3.9-15.8-7.4c-0.4,0.5-0.9,1.1-1.4,1.6c-4.3,4.1-9.3,6.6-15.2,7.2c-0.7,0.1-1.4,0.2-2,0   c-2-0.7-4,0-5.9,0.3c-5,0.7-9.9,1.6-14.9,2c-5.9,0.5-11.8,0.8-17.7,0.9c-3.6,0.1-7.2,0.1-10.7-0.9c-5.8-1.6-9.5-6-10.2-12   c-0.6-4.3-0.1-8.6,0.1-12.9c0.2-5.2,0.6-10.4,0.6-15.5c0-8-0.2-16-0.5-23.9c-0.2-6.8-0.7-13.6-1.1-20.4c-0.4-5.9-0.7-11.8-1.1-17.7   c-0.3-4.7-0.8-9.3-1.1-14c-0.1-2.3,0-4.6,0-6.8c0-0.4,0-0.7-0.2-1.1c-1.1-2.8,0.1-5.2,3.1-5.8c5.3-1.2,10.6-1.9,16.1-2.3   c10.1-0.7,20.2-0.6,30.3,0.1c6.7,0.4,13.3,1.2,19.9,2c3.3,0.4,6.1,1.9,8.4,4.3c0.8,0.9,1.6,1.1,2.8,0.9c3.3-0.5,6.7-0.7,10-1.2   c8.1-1.5,14.1-6.2,18.5-13c3.5-5.3,5.4-11.1,6.4-17.3c1.4-8.2,1.1-16.4,0.3-24.6c-0.4-3.6-0.8-7.2-1.1-10.8c-0.1-1.3,0-2.7,0.3-4   c0.8-3.6,3.4-5.4,6.8-6.4c5.1-1.5,10.2-1.6,15.4-0.6c4,0.8,6.7,3.5,8.7,6.8c3.5,5.5,5.7,11.7,7.3,18c1.7,6.6,2.5,13.4,2.9,20.2   c0.5,8.3,1.1,16.5,1.5,24.8C339.9,27.1,339.6,28.7,339.5,30.3z M267.4,143c0.2,0.1,0.4,0.2,0.6,0.3c8.9,3.7,18.3,5.3,27.9,5.5   c6.1,0.1,12.2,0.1,18.3,0.1c16.7,0,33.4,0,50,0c5.1,0,10.3-0.1,15.4,0c5.1,0.1,9.9-1,14.1-3.9c4.9-3.4,7.3-9,5.8-14.4   c-0.5-2-1.8-3.8-2.8-5.7c-0.1-0.2-0.5-0.2-0.8-0.2c-2.8,0-5.6,0.2-8.4-0.1c-4.7-0.5-9.3-1.4-13.9-2.1c-1-0.2-1.7-0.9-1.9-1.9   c-0.4-1.9,0.9-3.8,2.9-3.8c3.3-0.1,6.6,0,9.9,0c3.9,0,7.7,0.3,11.5,0.1c4.7-0.2,8.8-3.5,10-7.8c1.4-4.7,0.4-8.9-2.5-12.8   c-0.8-1.1-1.7-1.8-3.2-1.3c-0.3,0.1-0.6,0.1-0.9,0.1c-6.9,0-13.8,0-20.7-0.1c-2.4,0-4.7-0.1-6.9-1c-1.3-0.5-1.9-1.3-1.9-2.6   c0-1.4,0.6-2.4,1.9-2.8c1.6-0.4,3.2-0.9,4.8-0.9c6.3-0.2,12.7-0.3,19-0.4c1.3,0,2.6-0.1,3.9-0.1c3.9-0.1,6.7-1.8,8.3-5.4   c1.5-3.5,2-7.1,1.1-10.9c-1-4.6-3.8-6.5-8.4-5.9c-1.3,0.2-2.6,0.4-3.9,0.5c-7.2,0.2-14.5,0.5-21.7,0.6c-1.5,0-3.1-0.3-4.5-0.8   c-2.6-0.9-3.5-3.4-2.4-5.9c1.3-2.8,3.7-4,6.5-4c3.7-0.1,7.4,0.1,11,0.3c5.2,0.2,10.4,0.6,15.5,0.7c3.4,0.1,5.8-1.7,7.1-4.8   c2.7-6.6-2.2-13.8-9.5-13.8c-5.3,0-10.6,0.3-15.9,0.2c-13-0.1-26-0.4-39.1-0.6c-2.7,0-5.3-0.3-7.9-1.1c-3.4-1.1-5.8-3.1-6.6-6.6   c-0.4-1.7-0.5-3.4-0.5-5.1c0-10.1,0.1-20.3-1-30.4c-0.7-6.1-1.7-12.2-3.8-18c-1.1-3.1-2.6-6.1-4-9c-0.9-1.9-2.4-2.9-4.5-3   c-2.9-0.1-5.9-0.1-8.8-0.2c0,0-0.1,0.1-0.1,0.1c0.5,4.2,1,8.4,1.4,12.5c0.7,7.1,1,14.1,0.1,21.2c-0.9,7.3-2.9,14.3-6.4,20.8   c-3.8,6.9-8.8,12.7-15.9,16.5c-5.8,3.1-11.9,5.1-18.6,4.2c-1-0.1-2.1-0.3-3.1-0.5c0.9,2,1.9,4,2.7,6c3.4,8.2,5,16.8,5.5,25.6   c0.6,9.4,1,18.8,1.2,28.2c0.2,7.2,0,14.3-0.2,21.5c-0.1,4.4-0.7,8.7-1.8,12.9C270.9,136.4,269.5,139.8,267.4,143z M194.6,94.5   c0,0.2,0,0.5,0,0.8c0.3,9.9,0.6,19.8,0.7,29.8c0.1,4.6-0.2,9.2-0.1,13.8c0.1,2,0.6,4,1,6c0.2,0.9,0.8,1.5,1.9,1.4   c0.5-0.1,1,0.1,1.5,0.1c6.9-0.3,13.9-0.6,20.8-1c6.4-0.4,12.7-1.4,18.9-2.7c4.1-0.9,8.2-1.8,12.4-2.8c0.9-0.2,1.9-0.2,2.6-0.6   c2.2-1.5,4.1-3.3,5.5-5.6c2.4-3.7,3.1-7.8,3.2-12.1c0.2-8.1,0.3-16.2,0.4-24.4c0-1.3,0-2.6,0-3.7C240.4,95.4,217.6,96.2,194.6,94.5   z M194.4,90.7c1.8,0,3.6,0,5.4,0c0.2,0,0.4-0.1,0.6-0.3c0.5-0.5,0.9-1.2,1.5-1.7c9.7-8.6,19.4-17.3,29.3-25.8   c8.6-7.3,17.3-14.5,26.1-21.8c-0.6-1.3-1.4-2.8-1.9-3.9c-1.8,0.2-3.3,0.3-4.8,0.4c-0.4,0-0.9,0.1-1.2,0.4   c-8.6,7.3-17.3,14.6-25.9,22c-8.9,7.7-17.6,15.6-26.3,23.4c-1,0.9-2.4,1.6-2.8,2.8c-0.5,1.2,0,2.8,0.1,4.1   C194.4,90.4,194.4,90.5,194.4,90.7z M208.3,90.6c0.1,0.1,0.1,0.2,0.2,0.2c3.6,0.1,7.1,0.1,10.6,0.1c0.2,0,0.5-0.2,0.7-0.4   c0.8-0.9,1.4-1.9,2.2-2.6c2.5-2.3,5.1-4.5,7.8-6.7c7.2-6.1,14.5-12.1,21.1-18.9c3.2-3.3,6.2-6.8,9.3-10.2c0.1-0.2,0.3-0.4,0.2-0.6   c-0.4-1.6-0.8-3.1-1.2-4.8C242.1,61.4,225.2,76,208.3,90.6z M238.7,90.6c0.2-1.5,1.2-2.4,2.2-3.2c7.1-5.8,14.2-11.6,21.3-17.3   c0.3-0.2,0.5-0.6,0.5-0.9c-0.2-3.1-0.5-6.3-0.7-9.4c-5.6,5.3-11,10.7-16.7,15.9c-5.7,5.1-11.5,10-17.6,15.2   C231.6,90.8,235.1,90.7,238.7,90.6z M239.6,36.6c-1.9-0.1-3.6-0.3-5.4-0.3c-0.2,0-0.5,0.3-0.7,0.5c-0.8,0.9-1.5,1.9-2.4,2.6   c-3.5,2.8-7,5.5-10.5,8.3C212,54.8,203.6,62,195,69c-1.6,1.3-2.5,2.5-2,4.7c0.4,1.6,0.4,3.3,0.6,5.2   C208,63.6,223.3,49.8,239.6,36.6z M212.5,35.8c1.1,1.2,1.2,1.8,0.4,3.2c-0.6,1-1.3,1.9-2.1,2.7c-1.8,1.6-3.8,2.9-5.5,4.6   c-4.6,4.2-9.1,8.4-13.6,12.7c-0.2,0.2-0.3,0.5-0.2,0.8c0.1,1.4,0.4,2.8,0.5,4.1c0.2,1.4,0.4,2.9,0.6,4.6   c8.8-13.1,20.1-23.3,32.6-32.6C220.8,35.8,216.7,35.8,212.5,35.8z M208.9,36c-2.3,0-5,0-7.8,0c-0.3,0-0.6,0.2-0.9,0.4   c-3.1,2.6-6.1,5.3-9.3,7.9c-1.3,1.1-1.8,2.2-1.3,3.9c0.4,1.5,0.6,3.2,0.9,4.9C195.9,46.2,201.8,40.2,208.9,36z M255,89.7   c1-1.4,1.7-2.6,2.6-3.5c1.5-1.3,3.3-2.4,5-3.6c0.2-0.2,0.6-0.4,0.6-0.7c0-1.8,0-3.5,0-5.5c-5.9,4.6-11.5,9.1-17.2,13.5   c0,0.1,0.1,0.1,0.1,0.2C249.2,90,252.3,89.9,255,89.7z M188.5,41.9c1.6-1.9,3.2-3.6,4.6-5.3c-1.8,0-3.8,0-5.8,0   C187.7,38.5,188.1,40.2,188.5,41.9z"></path>
	<path class="st2" d="M194.6,94.5c23,1.7,45.9,0.9,68.9-0.9c0,1.1,0,2.4,0,3.7c-0.1,8.1-0.2,16.2-0.4,24.4   c-0.1,4.3-0.8,8.4-3.2,12.1c-1.4,2.2-3.3,4.1-5.5,5.6c-0.7,0.5-1.7,0.5-2.6,0.6c-4.1,0.9-8.2,1.9-12.4,2.8   c-6.2,1.3-12.5,2.3-18.9,2.7c-6.9,0.4-13.9,0.7-20.8,1c-0.5,0-1-0.1-1.5-0.1c-1.1,0.1-1.7-0.5-1.9-1.4c-0.4-2-1-4-1-6   c-0.1-4.6,0.2-9.2,0.1-13.8c-0.2-9.9-0.5-19.9-0.7-29.8C194.6,95.1,194.6,94.8,194.6,94.5z M227,134.4c8.1,0.1,13-2.8,16.4-8.3   c3.8-6.1,2.7-12.5-2.9-16.9c-2.1-1.6-4.5-3-6.9-4.1c-3.5-1.5-7.1-1.9-10.6,0c-4.2,2.4-7.7,5.5-10.2,9.7c-2.6,4.5-2.1,9.6,1.4,13.5   C217.9,132.8,223,134.3,227,134.4z M211.8,111.3c-0.1-0.1-0.2-0.1-0.2-0.2c-1.9,0.9-3.2,2.3-4.1,4.2c-1.5,3.3-1.6,6.8-0.9,10.2   c0.3,1.4,1.1,2.6,1.8,3.8c0.2,0.3,0.9,0.5,1.3,0.4c0.2-0.1,0.5-0.8,0.5-1.1c-0.1-1.1-0.4-2.1-0.6-3.2c-0.6-3.2-0.1-6.2,0.9-9.3   C210.8,114.5,211.3,112.9,211.8,111.3z"></path>
	<path class="st2" d="M194.4,90.7c0-0.2-0.1-0.3-0.1-0.4c-0.1-1.4-0.6-2.9-0.1-4.1c0.4-1.1,1.8-1.9,2.8-2.8   c8.8-7.8,17.5-15.6,26.3-23.4c8.5-7.4,17.2-14.7,25.9-22c0.3-0.3,0.8-0.3,1.2-0.4c1.5-0.2,3-0.3,4.8-0.4c0.6,1.2,1.3,2.6,1.9,3.9   c-8.8,7.3-17.5,14.4-26.1,21.8c-9.9,8.5-19.5,17.1-29.3,25.8c-0.6,0.5-1,1.1-1.5,1.7c-0.1,0.1-0.4,0.3-0.6,0.3   C198,90.7,196.3,90.7,194.4,90.7z"></path>
	<path class="st3" d="M208.3,90.6c16.9-14.6,33.8-29.2,50.9-44c0.5,1.7,0.9,3.3,1.2,4.8c0,0.2-0.1,0.5-0.2,0.6   c-3.1,3.4-6.1,6.9-9.3,10.2c-6.6,6.7-13.9,12.8-21.1,18.9c-2.6,2.2-5.2,4.4-7.8,6.7c-0.9,0.8-1.5,1.8-2.2,2.6   c-0.2,0.2-0.5,0.4-0.7,0.4c-3.6,0-7.1-0.1-10.6-0.1C208.4,90.8,208.4,90.7,208.3,90.6z"></path>
	<path class="st2" d="M238.7,90.6c-3.6,0.1-7.1,0.2-11,0.4c6-5.2,11.9-10.1,17.6-15.2c5.7-5.1,11.1-10.5,16.7-15.9   c0.3,3.1,0.5,6.2,0.7,9.4c0,0.3-0.3,0.7-0.5,0.9c-7.1,5.8-14.2,11.5-21.3,17.3C239.9,88.1,238.9,89,238.7,90.6z"></path>
	<path class="st3" d="M239.6,36.6c-16.3,13.2-31.5,27.1-45.9,42.3c-0.2-1.9-0.2-3.6-0.6-5.2c-0.5-2.1,0.4-3.4,2-4.7   c8.6-7,17-14.2,25.5-21.3c3.4-2.8,7-5.5,10.5-8.3c0.9-0.7,1.6-1.8,2.4-2.6c0.2-0.2,0.5-0.5,0.7-0.5   C235.9,36.3,237.6,36.5,239.6,36.6z"></path>
	<path class="st2" d="M212.5,35.8c4.2,0,8.3,0,12.6,0c-12.5,9.3-23.8,19.5-32.6,32.6c-0.2-1.7-0.4-3.1-0.6-4.6   c-0.2-1.4-0.4-2.8-0.5-4.1c0-0.3,0.1-0.6,0.2-0.8c4.5-4.2,9.1-8.5,13.6-12.7c1.8-1.6,3.7-3,5.5-4.6c0.9-0.8,1.6-1.7,2.1-2.7   C213.7,37.6,213.6,37,212.5,35.8z"></path>
	<path class="st3" d="M208.9,36c-7,4.2-13,10.2-18.4,17.1c-0.3-1.8-0.4-3.4-0.9-4.9c-0.5-1.7,0-2.8,1.3-3.9c3.1-2.6,6.2-5.3,9.3-7.9   c0.2-0.2,0.6-0.4,0.9-0.4C203.8,36,206.6,36,208.9,36z"></path>
	<path class="st3" d="M255,89.7c-2.7,0.1-5.8,0.3-8.9,0.5c0-0.1-0.1-0.1-0.1-0.2c5.6-4.4,11.3-8.9,17.2-13.5c0,2,0,3.8,0,5.5   c0,0.2-0.3,0.5-0.6,0.7c-1.6,1.2-3.4,2.2-5,3.6C256.7,87.1,256,88.4,255,89.7z"></path>
	<path class="st2" d="M188.5,41.9c-0.4-1.7-0.7-3.4-1.1-5.3c2,0,3.9,0,5.8,0C191.6,38.3,190.1,40.1,188.5,41.9z"></path>
	<path class="st1" d="M294.2,140.4c-5.3,0-10.3-1.1-15.1-3.3c-0.3-0.1-0.5-0.6-0.8-0.9c0.4-0.2,0.7-0.5,1.1-0.5c6,0.4,12,0.9,18,1.4   c0.5,0,1.1,0.2,1.6,0.4c0.4,0.2,0.8,0.7,0.8,1c0,0.4-0.3,1.1-0.7,1.2c-0.9,0.4-2,0.5-2.9,0.7C295.5,140.5,294.8,140.4,294.2,140.4z   "></path>
	<path class="st1" d="M398.5,97.1c3.1,0.1,5.8,2.5,6.1,5.6c0,0.4,0,0.8-0.1,1.1c-0.3,1.2-0.7,2.4-2.1,2.6c-1.4,0.2-2.3-0.7-2.9-1.9   c-0.9-1.6-1.8-3.1-3.3-4.2c-1-0.7-0.7-2.4,0.6-2.9C397.3,97.3,397.9,97.2,398.5,97.1z"></path>
	<path class="st1" d="M397,134.5c0,0.2,0,0.4,0,0.6c-0.2,1.4-1,2.4-1.9,2.6c-1,0.2-1.8-0.3-2.6-1.8c-0.8-1.6-1.6-3.2-2.5-4.8   c-0.1-0.2-0.3-0.5-0.3-0.7c-0.5-1.7,0.3-2.7,2-2.6c1.5,0.1,2.5,0.9,3.4,2C396.4,131.2,397,132.9,397,134.5z"></path>
	<path class="st1" d="M405.4,74.8c-0.1,1.6-0.5,2.9-1.8,3.7c-0.9,0.6-1.6,0.4-2.1-0.5c-0.3-0.5-0.5-1-0.6-1.5   c-0.6-2.2-1.2-4.4-1.9-6.6c-0.4-1.3,0.1-1.9,1.5-1.6c2,0.3,4.2,2.7,4.7,5C405.3,73.8,405.4,74.4,405.4,74.8z"></path>
	<path class="st1" d="M397,41.5c2-0.6,3.7-0.4,5.2,0.8c1.8,1.4,3.2,3.1,3.5,5.4c0,0.3,0,0.6,0,0.9c-0.1,1-0.5,1.7-1.5,1.9   c-1,0.2-1.7-0.5-1.9-1.3C401.3,46.1,399.1,43.8,397,41.5z"></path>
	<path class="st1" d="M324.5,26.1c0.2,0.4,0.4,0.6,0.5,0.9c1.4,3,3,5.9,5.1,8.6c0.6,0.8,1.1,1.6,1.5,2.5c0.2,0.3,0.1,1-0.1,1.2   c-0.2,0.3-0.9,0.4-1.2,0.2c-0.9-0.4-1.9-0.9-2.5-1.6c-2.9-3.1-4.1-6.8-3.6-11.1C324.2,26.6,324.3,26.5,324.5,26.1z"></path>
	<path class="st1" d="M227,134.4c-4-0.2-9.1-1.6-12.9-6c-3.5-3.9-4-9-1.4-13.5c2.4-4.2,6-7.3,10.2-9.7c3.5-2,7.1-1.6,10.6,0   c2.4,1.1,4.8,2.4,6.9,4.1c5.7,4.4,6.7,10.8,2.9,16.9C240,131.6,235.1,134.6,227,134.4z M229.9,127.8c3.6-0.1,7-1.9,9.1-5.8   c1.3-2.4,0.8-4.9-1.4-6.6c-1.2-0.9-2.7-1.7-4.2-2.1c-2.8-0.7-5.7-0.9-8.5-1.5c-1.7-0.4-2.9,0.2-4,1.3c-0.6,0.6-1.2,1.3-1.7,2   c-2.8,4.1-1.8,8.5,2.5,10.9C223.9,127.3,226.4,127.7,229.9,127.8z"></path>
	<path class="st1" d="M211.8,111.3c-0.5,1.6-1,3.2-1.5,4.9c-0.9,3-1.5,6.1-0.9,9.3c0.2,1.1,0.5,2.1,0.6,3.2c0.1,0.4-0.2,1.1-0.5,1.1   c-0.4,0.1-1.1-0.1-1.3-0.4c-0.7-1.2-1.5-2.5-1.8-3.8c-0.7-3.5-0.6-6.9,0.9-10.2c0.9-1.9,2.2-3.3,4.1-4.2   C211.6,111.1,211.7,111.2,211.8,111.3z"></path>
	<path class="st3" d="M229.9,127.8c-3.4-0.1-5.9-0.4-8.2-1.8c-4.3-2.5-5.3-6.9-2.5-10.9c0.5-0.7,1.1-1.4,1.7-2   c1.1-1.1,2.3-1.7,4-1.3c2.8,0.6,5.7,0.8,8.5,1.5c1.5,0.4,3,1.2,4.2,2.1c2.2,1.7,2.7,4.1,1.4,6.6   C236.9,125.9,233.4,127.6,229.9,127.8z M228,124.8c1.5-0.4,2.8-0.5,4-1c3.1-1.3,3.8-4.7,1.5-7.2c-2.1-2.3-5.1-1.7-7.7-2.1   c0,0-0.1,0-0.1,0c-1.2,0.5-2.6,0.9-3.7,1.7c-2.8,1.8-2.6,5.4,0.3,6.8C224.2,123.9,226.2,124.3,228,124.8z"></path>
	<path class="st1" d="M228,124.8c-1.8-0.6-3.8-0.9-5.6-1.8c-2.9-1.4-3.1-5-0.3-6.8c1.1-0.7,2.4-1.1,3.7-1.7c0,0,0.1,0,0.1,0   c2.7,0.4,5.6-0.2,7.7,2.1c2.3,2.5,1.6,5.9-1.5,7.2C230.8,124.3,229.5,124.5,228,124.8z"></path>
</g>
<g class="st0">
	<path class="st1" d="M280.6,162.7c-8.9-4.7-15.9-11.6-22.6-18.9c-1.9-2.1-1.9-2.1-4.4-0.5c-6,3.8-11.9,7.6-17.9,11.3   c-1.2,0.8-2.5,1.3-3.9,0.2c-1.6-1.3-2.1-2.8-1.5-4.6c6.2-19.8,12.4-39.5,18.5-59.3c1.2-4,2-8.2,2.9-12.3c0.1-0.5-0.3-1.5-0.7-1.8   C240.5,70.5,234,61,229.9,49.7c-2.8-7.7-5-15.5-5-23.8c0-6,1.7-11.4,4.4-16.6c7.6-14.8,18.9-25.8,34.9-31.3   c8.2-2.8,16.8-3.1,25.3-2.5c4.8,0.4,9.6,1.1,14.2,2.2c13,3.1,22.4,11.4,30.1,21.9c7.7,10.5,11.6,22.3,11.2,35.4   c-0.3,7.8-2.1,15.1-6.4,21.6c-1.3,1.9-2.5,3.9-3.7,5.9c-4,6.8-9.7,11.6-16.2,15.8c-4.3,2.8-4.2,2.9-2.6,7.7   c6.5,18.9,13,37.9,19.5,56.8c0.5,1.5,0.8,3.1,0.9,4.6c0.1,2.1-0.9,3.3-3,3.2c-2-0.1-4-0.4-5.9-0.9c-7.3-1.9-14.5-3.9-21.7-5.7   c-1-0.3-2.4,0-3.2,0.5c-5.8,3.8-11.6,7.7-17.3,11.6c-0.7,0.5-1,1.5-1.4,2.4c-0.6,1.4-1,2.8-1.6,4.2   C281.8,162.7,281.2,162.7,280.6,162.7z M336,18.6c0.2-0.1,0.4-0.2,0.5-0.3c-1.5-3.5-2.9-7-4.4-10.5c-1.4-3.3-3.8-5.7-7.1-6.9   c-1.6-0.6-1.6-1.5-0.8-2.6c0.7-1,0.6-1.7-0.3-2.5c-5.3-5.1-10.8-9.8-17.9-12.1c-11.8-3.9-23.9-4.1-35.9-1.4   c-21.2,4.7-42.4,26.7-38.7,52.7c1.7,12,6.1,22.7,14.5,31.5c6.9,7.1,15.8,10.6,25.2,13.1c9,2.4,18.1,2,27.3,0.9   c4.9-0.6,9.6-1.9,13.7-4.7c1.1-0.8,2.1-1.8,3.4-2.9c-2.4-1.8-4.6-3.3-6.7-4.8c-1.2-0.9-1.2-1.8,0.2-2.4c0.5-0.2,1.5-0.1,1.9,0.3   c1.9,1.5,3.7,3.2,5.6,4.7c0.4,0.3,1.3,0.5,1.7,0.2c1.5-1.1,2.9-2.4,4.7-4c-3.3-3.1-6.4-6.1-9.5-9c1.4-2.1,1.8-2.2,3.3-0.8   c2.7,2.5,5.4,5.1,8.3,7.8c1.3-1.5,2.5-2.9,3.8-4.6c-3.4-3-6.6-5.9-9.8-8.7c1.3-2.9,1.8-3,3.9-1.1c1.2,1.1,2.3,2.2,3.4,3.3   c1.2,1.2,2.4,2.3,3.6,3.5c2.8-3.8,2.8-4-0.5-6.9c-0.2-0.2-0.5-0.4-0.7-0.6c-2.6-2.3-5.1-4.5-7.7-6.8c-1.1-1-0.8-2-0.1-2.9   c0.8-1.2,1.5-0.2,2.1,0.3c2.1,1.8,4.2,3.8,6.2,5.7c1.4,1.3,2.7,2.6,4.1,4c0.4-0.7,0.7-1.2,0.9-1.6c1.6-3.2,1.6-3.2-0.9-5.7   c-3.5-3.4-7.1-6.8-10.8-10.2c-1.1-1-1.5-2-0.4-3.1c1.2-1.2,1.7,0.3,2.3,0.8c3.4,3.1,6.8,6.3,10.2,9.5c0.7,0.6,1.5,1.1,2.8,2.1   c0.4-2.8,0.6-5.1,1-7.4c0.2-1.2-0.3-2.1-1.2-2.8c-3.9-2.9-7.7-5.8-11.5-8.8c-0.7-0.6-1.5-1.1-2.2-1.7c-1.1-0.9-0.7-2-0.2-2.9   c0-0.1,1.4,0.1,1.9,0.5c1.6,1.1,3.1,2.4,4.6,3.6c2.7,2.3,5.4,4.6,8.5,7.2c-0.7-3.6-0.4-6.8-3.6-9c-3.5-2.5-6.6-5.4-10-8.1   c-1.7-1.4-1.7-2.4,0.2-4.2C328.7,11.8,332.4,15.2,336,18.6z M290.2,95.7c0.6-3.1,1.1-5.9,1.7-8.9c-11.7-1.6-23.3-2.5-34.4-6.8   c-0.4,1.4-0.8,2.4-1,3.4c-1.7,7.1-3.1,14.2-5.1,21.1c-3.5,11.9-7.4,23.7-11.1,35.6c-0.5,1.5-0.7,3.1-1.2,5.3c1.7-0.8,2.8-1.3,3.9-2   c4.2-2.6,8.5-5.3,12.6-8.1c1.7-1.1,2.7-0.9,4.1,0.4c5.1,5.2,10.4,10.3,15.5,15.5c0.9,0.9,1.7,2,2.5,3c0.2-0.2,0.5-0.4,0.7-0.6   c-3-4.8-6-9.6-8.8-14.1c0.8-1.1,1.5-2,2.4-3.3c2.7,4.3,5,8.1,7.6,12.2c1-3.3,1.8-6-0.5-8.8c-2.4-2.9-4.3-6.2-6.4-9.3   c-1.2-1.8-1-2.5,1.2-4c2.5,3.5,5.1,7,7.8,10.7c0.2-0.9,0.3-1.6,0.5-2.3c1.1-3,0.3-5.5-2-7.7c-2.1-2-3.9-4.2-5.8-6.3   c-0.8-0.9-0.6-2.6,0.4-3.4c1.1-0.9,1.7,0.2,2.2,0.8c1,1.1,1.9,2.3,2.7,3.4c1.3,1.7,2.5,3.5,4,5.6c0.4-1.6,0.6-2.9,0.9-4.1   c0.4-1.6,0.2-3-0.9-4.4c-2-2.4-3.8-4.9-5.6-7.4c-1.5-1.9-1.4-2.5,1.1-4.2c2.3,3.1,4.6,6.2,7.3,9.7c0.3-1.9,0.3-3.5,0.7-4.9   c0.5-1.9-0.1-3.4-1.3-4.9c-1.8-2.3-3.4-4.7-5.1-7.2c-1-1.4-0.7-2.3,1.1-3.4c2.2,2.9,4.3,5.8,6.8,9.1c0.3-1.4,0.4-2.4,0.6-3.3   c0.7-2.1,0.1-3.8-1.4-5.3c-1.2-1.3-2.3-2.7-3.4-4.1c-1-1.1-0.1-1.8,0.6-2.4c0.8-0.8,1.4-0.3,1.9,0.4   C287.8,92.4,288.9,93.9,290.2,95.7z M313,100.2c0.2-0.1,0.3-0.2,0.5-0.4c-1.9-5.3-3.7-10.5-5.6-16c-2.3,0.8-4.4,1.6-6.5,2.1   c-2,0.5-2.8,1.6-3.2,3.6c-3.6,17.7-7.3,35.4-10.9,53.2c-0.5,2.3-0.8,4.6-1.3,7.3c1-0.7,1.5-1.1,2-1.5c4.3-3.4,8.7-6.7,13-10.1   c1-0.8,1.8-1.1,3.1-0.7c5.3,1.5,10.7,2.9,16,4.3c1.7,0.4,3.4,0.8,5.1,1.2c-0.5-0.6-1-1-1.6-1.4c-3.2-1.9-6.4-3.7-9.6-5.6   c-1.7-1-2-2.3-0.9-4.3c4.8,3,9.6,6,14.9,9.3c-1.1-3.3-1.8-6.1-4.9-7.6c-3-1.5-5.7-3.5-8.6-5.2c-1.9-1.2-2.3-2.3-1.3-5   c3.5,2.3,6.9,4.6,10.5,6.9c-0.5-2.2-1-4.1-3-5.4c-2.6-1.6-5-3.5-7.5-5.3c-1.8-1.2-2.1-2.2-1.4-4.7c3.1,2.4,6.1,4.7,9.1,7.1   c0.1-0.1,0.3-0.2,0.4-0.3c-1.8-3.5-1.9-7.9-6.5-9.6c-0.9-0.3-1.7-0.9-2.6-1.4c-1.8-1.1-2.2-2.6-1-4.8c1.6,1,3.3,2.1,5,3.2   c-0.2-2.3-0.7-4.3-3-5.3c-0.6-0.3-1.1-0.8-1.7-1.1c-1.7-0.8-2-2.1-1.2-3.8C311.3,99.3,312.2,99.8,313,100.2z"></path>
	<path class="st1" d="M312.9,19c-0.4,0.6-0.9,1.7-1.6,2.6c-2.8,3.1-5.6,6.1-8.6,9c-1.3,1.3-1.6,2.5-1.1,4.2c1.3,5,2.6,10,3.7,15.1   c0.3,1.4,0.3,3.1,0,4.5c-0.4,1.9-1.5,2.3-3.2,1.3c-4.3-2.6-8.5-5.3-12.8-7.8c-6.2-3.6-4.5-3.5-9.4,1.3c-3.2,3.1-6.3,6.3-9.6,9.3   c-1,0.9-2.6,1.4-3.9,1.6c-1.9,0.3-2.5-0.7-2.1-2.6c1.3-5.1,2.7-10.1,4-15.2c0.1-0.6,0.2-1.2,0.4-1.8c0.4-1.2,0-2-1-2.8   c-4.8-3.5-9.5-7-14.2-10.6c-0.7-0.6-1.5-1.3-1.8-2.2c-0.8-1.9,0.1-3.2,2.1-3.4c5.2-0.4,10.3-0.7,15.5-1c0.2,0,0.5,0,0.7,0   c2.6,0.1,4.2-0.9,5.1-3.5c2-5.6,4.3-11,6.5-16.5c0.5-1.3,1-2.6,2.8-2.4c1.6,0.2,2.4,1.2,2.9,2.6c1.5,4.5,3,9,4.7,13.4   c1.2,3.2,1.3,3.1,4.7,2.9c4.4-0.3,8.8-0.7,13.1-0.9C311.8,16.2,312.9,17.1,312.9,19z M307.4,20.6c-0.1-0.2-0.1-0.3-0.2-0.5   c-0.9,0-1.8,0-2.7,0c-3.8,0.2-7.7,0.3-11.5,0.5c-1.5,0.1-2.2-0.5-2.8-1.8c-1.5-3.6-3-7.1-4.5-10.6c-0.3-0.7-0.8-1.4-1.4-2.4   c-0.7,1.4-1.2,2.3-1.6,3.3c-1.9,4.2-3.7,8.3-5.5,12.5c-0.5,1.3-1.4,1.8-2.8,1.9c-4.6,0-9.1,0.2-13.7,0.3c-1,0-1.9,0.3-3.4,0.5   c1.1,0.9,1.7,1.5,2.4,2c4.2,3.2,8.3,6.4,12.5,9.5c1.2,0.9,1.6,1.8,1.1,3.3c-1.3,4.1-2.4,8.2-3.5,12.3c-0.2,0.9-0.4,1.8-0.5,2.7   c1.1-0.5,2-1.2,2.7-1.9c3.5-3.4,7.1-6.7,10.5-10.1c1-1,1.8-1,3-0.3c3.7,2.3,7.4,4.4,11.2,6.6c1.4,0.8,2.8,1.7,4.5,2.7   c-0.3-1.2-0.4-2-0.6-2.8c-1.3-4.7-2.6-9.4-3.8-14.1c-0.2-0.8,0.1-2,0.6-2.6c2-2.4,4.3-4.7,6.5-7C305,23.3,306.2,22,307.4,20.6z"></path>
	<path class="st1" d="M260-4.4c-0.6,0.4-1.1,0.8-1.8,1.2c-4.2,2.3-7.1,5.6-8.7,10.2c-0.3,0.9-0.8,1.8-1.1,2.7   c-0.7,1.8-2.1,1.3-3.3,0.9c-1.6-0.5-1.1-1.6-0.6-2.6c1.8-4,3.7-8,6.9-11c1.2-1.2,2.6-2.1,4.1-3C257.4-7.2,258.7-6.7,260-4.4z"></path>
	<path class="st1" d="M264,93.1c2,0,2.6,0.6,2.2,2c-2.4,7.1-4.9,14.3-7.3,21.4c-0.2,0.5-0.7,1.1-1.2,1.3c-0.6,0.2-1.3,0.2-1.9,0   c-0.2-0.1-0.2-1.1-0.1-1.6c2.3-7.2,4.6-14.4,6.9-21.5C262.9,93.9,263.7,93.4,264,93.1z"></path>
	<path class="st4" d="M307.4,20.6c-1.2,1.3-2.4,2.7-3.7,4c-2.2,2.3-4.4,4.6-6.5,7c-0.5,0.6-0.8,1.8-0.6,2.6   c1.2,4.7,2.5,9.4,3.8,14.1c0.2,0.8,0.4,1.6,0.6,2.8c-1.7-1-3.1-1.8-4.5-2.7c-3.7-2.2-7.5-4.4-11.2-6.6c-1.2-0.7-2-0.7-3,0.3   c-3.5,3.4-7,6.8-10.5,10.1c-0.7,0.7-1.5,1.3-2.7,1.9c0.2-0.9,0.3-1.8,0.5-2.7c1.1-4.1,2.3-8.2,3.5-12.3c0.5-1.5,0.1-2.4-1.1-3.3   c-4.2-3.2-8.4-6.3-12.5-9.5c-0.7-0.5-1.3-1.1-2.4-2c1.5-0.2,2.4-0.4,3.4-0.5c4.6-0.2,9.1-0.3,13.7-0.3c1.4,0,2.3-0.6,2.8-1.9   c1.8-4.2,3.7-8.4,5.5-12.5c0.4-1,1-1.9,1.6-3.3c0.6,1,1,1.7,1.4,2.4c1.5,3.5,3.1,7,4.5,10.6c0.5,1.3,1.3,1.9,2.8,1.8   c3.8-0.3,7.7-0.4,11.5-0.5c0.9,0,1.8,0,2.7,0C307.3,20.3,307.3,20.5,307.4,20.6z"></path>
</g>
<g class="st0">
	<path class="st5" d="M350.8,21.2c-3-0.1-5.8-1-8.6-2c-0.7-0.3-1.2-0.2-1.8,0.2c-4.4,2.6-8.8,5.1-13.2,7.6c-0.8,0.4-1,0.8-0.5,1.6   c4.6,9.6,7,19.7,6.6,30.3c-0.5,12.6-4.7,23.8-11.9,34c-5,7.1-11.1,13-17.9,18.3c-0.7,0.5-0.8,0.9-0.4,1.7c3.2,6,6.4,11.9,10.2,17.5   c1.1,1.6,1,3.5-0.2,5c-1.5,1.9-3.8,1.8-5.1-0.1c-3-4.4-5.6-8.9-8-13.5c-0.9-1.7-1.8-3.4-2.7-5.1c-0.3-0.7-0.5-0.7-1.1-0.3   c-5.1,3.2-10.5,5.9-16.5,7.4c-7.6,1.9-15.3,2-23,0.8c-7.9-1.2-15.4-3.7-22.5-7.5c-0.8-0.4-0.9-0.1-1.3,0.5   c-3.4,5.8-6.6,11.6-10.2,17.3c-0.6,0.9-1.3,1.7-2.4,1.9c-1.1,0.2-2.1,0-2.9-1c-0.8-1.1-1-2.3-0.5-3.5c0.7-1.5,1.6-2.9,2.4-4.4   c2.6-4.5,5.2-8.9,7.9-13.4c0.5-0.9,0.5-1.3-0.4-1.8c-10.4-7.2-18.2-16.4-22.9-28.2c-6.8-17-6.4-34,0.5-50.8   c9-21.8,25.1-35.9,48.3-41.3c26.3-6.1,54.1,5.1,69.1,27.6c1,1.6,1,1.6,2.7,0.6c4.4-2.6,8.8-5.1,13.2-7.6c0.6-0.4,1-0.8,1.1-1.6   c0.3-1.7,0.7-3.3,1-4.9c0.7-3,2.3-5.3,5-6.9c0.7-0.4,1.3-0.8,2-1.1c3.7-1.7,7.1-3.9,10.5-6.2c1.2-0.8,2.5-1.7,3.7-2.4   c1.5-0.8,3.1-1.3,4.6-0.1c1.5,1.3,1.6,3,1.1,4.8c-0.5,1.7-1.2,3.4-1.8,5.2c-0.3,0.7-0.2,0.9,0.6,1.1c1.9,0.4,3.9,0.9,5.8,1.3   c1.6,0.4,2.9,1.1,3.2,2.8c0.4,1.8,0,3.5-1.5,4.7c-1.4,1.1-3,1.9-4.5,2.7c-3.5,1.8-7,3.8-10.3,6.1C356,20.2,353.6,21.3,350.8,21.2z    M267.7-1.8c-16.1,0.2-29,4.6-40.1,13.8c-13.2,11.1-20.4,25.5-21.8,42.6c-1.4,17.5,4.1,32.7,16.8,45c10.5,10.2,23.2,16,37.7,17.8   c8.2,1,16.3,0.3,24-3c11.9-5.1,22-12.7,29.9-22.9c14.4-18.6,16.2-38.6,6.2-59.7c-0.3-0.6-0.5-0.8-1.1-0.4c-2.6,1.6-5.3,3.1-8,4.6   c-0.6,0.3-0.7,0.6-0.4,1.2c4.6,10.1,5.5,20.5,3.3,31.3c-7.3,35.5-49.9,51-78.2,28.3C221.1,85,215.5,69,218.3,50.3   c4-26.7,26.3-41.2,47.4-41.5c17.2-0.3,30.9,6.9,40.9,20.8c0.5,0.7,0.7,0.8,1.5,0.4c2.5-1.5,5-2.9,7.5-4.3c0.9-0.5,0.8-0.8,0.3-1.5   C303.6,7.2,286.9-1.2,267.7-1.8z M266.2,16.1c-2.7,0-5.3,0.2-8,0.8c-10.1,2.1-18.9,6.7-25.3,14.9c-7.5,9.6-10.2,20.6-8.3,32.6   c1.8,11.1,7.3,20.1,16.2,26.9c9,6.9,19.3,9.6,30.5,8.6c10.8-1,20-5.5,27.1-13.7c7.4-8.6,10.8-18.6,10.3-30   c-0.2-5.4-1.6-10.4-3.8-15.3c-0.2-0.4-0.3-0.9-1-0.5c-2.7,1.6-5.5,3.2-8.2,4.7c-0.7,0.4-0.6,0.8-0.4,1.4c1.6,4.2,2.4,8.5,2,13   c-0.7,9.3-4.6,17.1-11.7,23c-7.4,6.1-15.9,8.6-25.4,6.5c-8.8-1.9-15.5-7-20.2-14.6c-3.9-6.2-5.4-13-4.3-20.2c1.2-8,4.8-14.8,11-20   c6.8-5.7,14.7-8.2,23.5-7.2c8.5,1,15.4,5.1,20.7,11.9c0.4,0.5,0.7,0.6,1.3,0.3c2.5-1.4,5-2.9,7.5-4.3C301,34,301,34,300.1,33   C291.5,22,280.1,16.5,266.2,16.1z M241.9,56.4c-0.1,7.3,2.4,12.6,6.6,17.1c4.4,4.8,9.9,8.1,16.5,8.5c9.5,0.6,16.9-3.4,22-11.2   c4.3-6.5,4.9-13.6,2.1-20.9c-0.2-0.5-0.2-1.1-1.1-0.6c-2.7,1.6-5.5,3.1-8.2,4.7c-0.6,0.3-0.7,0.6-0.5,1.3c0.8,3.9,0,7.5-2.3,10.6   c-3.1,4.3-7.3,6.6-12.7,5.8c-8-1.3-12.6-8.4-10.8-16.5c2.2-10,14.3-14.1,21.6-7.3c0.5,0.4,0.8,0.4,1.3,0.1c2.5-1.4,5-2.9,7.5-4.3   c0.8-0.4,1-0.7,0.3-1.5c-5.9-6.2-13-8.9-21.5-7.9C251.1,35.6,242.1,45.6,241.9,56.4z M358,0.1c-1.4,0.9-2.6,1.7-3.8,2.4   c-1.3,0.8-2.6,1.5-3.9,2.1c-4.5,2.2-3.9,1.2-5,6.7c0,0,0,0.1,0,0.1c-0.2,0.6,0,0.9,0.6,1.1c1.4,0.4,2.8,0.8,4.2,1.2   c1.8,0.4,3.5,0.1,5.1-1.1c1.3-1,2.6-1.8,4-2.7c1-0.6,2.1-1.2,3.2-1.8c-0.7-0.4-1.4-0.3-2-0.3c-2.4,0.1-3.7-1.6-3.3-3.9   C357,2.6,357.6,1.5,358,0.1z M272.9,58c-0.4,0.3-0.8,0.5-1.2,0.8c-1.4,0.9-2.8,2-4.4,2.7c-1.7,0.8-3.5,0-4.1-1.8   c-0.5-1.6,0.1-3.5,1.5-4.5c1-0.7,2-1.3,3-2c0.3-0.2,0.7-0.3,0.8-0.7c-3.1-1.1-6.1-0.3-7.8,2.1c-1.6,2.2-1.4,5.1,0.5,7.4   c1.9,2.3,5.5,3.1,8.2,1.9C272,62.6,273.3,60.4,272.9,58z"></path>
	<path class="st6" d="M267.7-1.8c19.2,0.6,35.9,9,48.1,26c0.5,0.7,0.6,1-0.3,1.5c-2.5,1.4-5,2.8-7.5,4.3c-0.8,0.4-1,0.3-1.5-0.4   c-10.1-14-23.7-21.1-40.9-20.8c-21.1,0.4-43.4,14.8-47.4,41.5C215.5,69,221.1,85,236,96.9c28.3,22.7,70.9,7.2,78.2-28.3   c2.2-10.8,1.3-21.3-3.3-31.3c-0.3-0.6-0.2-0.9,0.4-1.2c2.7-1.5,5.4-3,8-4.6c0.6-0.4,0.9-0.2,1.1,0.4c10,21.2,8.2,41.2-6.2,59.7   c-7.9,10.2-18.1,17.8-29.9,22.9c-7.6,3.3-15.8,4-24,3c-14.5-1.8-27.2-7.6-37.7-17.8c-12.6-12.3-18.2-27.5-16.8-45   c1.4-17.1,8.5-31.5,21.8-42.6C238.7,2.8,251.7-1.5,267.7-1.8z"></path>
	<path class="st3" d="M266.2,16.1c13.9,0.3,25.3,5.9,33.9,16.8c0.9,1.1,0.8,1.1-0.3,1.8c-2.5,1.4-5,2.8-7.5,4.3   c-0.6,0.3-0.9,0.3-1.3-0.3c-5.3-6.8-12.1-10.9-20.7-11.9c-8.8-1.1-16.7,1.4-23.5,7.2c-6.2,5.2-9.9,12-11,20   c-1.1,7.2,0.4,14,4.3,20.2c4.8,7.6,11.4,12.7,20.2,14.6c9.5,2,18-0.4,25.4-6.5c7.2-5.9,11-13.7,11.7-23c0.3-4.5-0.4-8.8-2-12.9   c-0.2-0.6-0.3-1,0.4-1.4c2.8-1.5,5.5-3.1,8.2-4.7c0.7-0.4,0.8,0.1,1,0.5c2.2,4.9,3.6,9.9,3.8,15.3c0.5,11.4-2.9,21.4-10.3,30   c-7.1,8.2-16.3,12.7-27.1,13.7c-11.3,1.1-21.5-1.7-30.6-8.6c-8.9-6.8-14.4-15.8-16.2-26.9c-1.9-12,0.8-23,8.3-32.6   c6.5-8.2,15.2-12.8,25.3-14.9C260.9,16.4,263.5,16.1,266.2,16.1z"></path>
	<path class="st6" d="M241.9,56.4c0.1-10.8,9.2-20.8,20.9-22.2c8.5-1,15.6,1.7,21.5,7.9c0.7,0.8,0.6,1-0.3,1.5   c-2.5,1.4-5,2.8-7.5,4.3c-0.5,0.3-0.8,0.3-1.3-0.1c-7.3-6.8-19.4-2.6-21.6,7.3c-1.8,8.1,2.7,15.2,10.8,16.5   c5.4,0.9,9.6-1.5,12.7-5.8c2.3-3.2,3.1-6.8,2.3-10.6c-0.1-0.6,0-0.9,0.5-1.3c2.8-1.5,5.5-3,8.2-4.7c0.9-0.5,0.9,0,1.1,0.6   c2.8,7.3,2.2,14.4-2.1,20.9c-5.2,7.8-12.6,11.8-22,11.2c-6.7-0.4-12.1-3.6-16.5-8.5C244.4,68.9,241.9,63.7,241.9,56.4z"></path>
	<path class="st3" d="M358,0.1c-0.4,1.4-1,2.5-1.2,3.7c-0.4,2.3,1,4,3.3,3.9c0.6,0,1.3-0.1,2,0.3C361,8.7,360,9.3,359,9.9   c-1.4,0.8-2.7,1.7-4,2.7c-1.5,1.2-3.3,1.5-5.1,1.1c-1.4-0.3-2.8-0.8-4.2-1.2c-0.6-0.2-0.8-0.5-0.6-1.1c0,0,0-0.1,0-0.1   c1.1-5.5,0.5-4.5,5-6.7c1.3-0.7,2.6-1.4,3.9-2.1C355.4,1.8,356.6,1,358,0.1z"></path>
	<path class="st3" d="M272.9,58c0.4,2.4-1,4.6-3.4,5.7c-2.8,1.2-6.3,0.4-8.2-1.9c-1.9-2.3-2.1-5.1-0.5-7.4c1.7-2.3,4.7-3.2,7.8-2.1   c0,0.5-0.5,0.5-0.8,0.7c-1,0.7-2.1,1.3-3,2c-1.4,1-1.9,2.9-1.5,4.5c0.6,1.8,2.3,2.7,4.1,1.8c1.5-0.7,2.9-1.8,4.4-2.7   C272.1,58.5,272.5,58.3,272.9,58z"></path>
</g>
<path class="st7" d="M107.9,78.9c21.4-21.9,42.6-43.3,66.8-62.6c-4.5-0.5-8.4-0.9-12.3-1.4c-0.6-0.1-1.2,0-1.7-0.2  c-1.1-0.5-2.2-1.1-3.3-1.7c1-0.7,1.8-1.7,2.9-1.9c5-1.3,10.1-2.7,15.2-3.4c6.5-1,10.7,2.4,10.9,8.9c0.1,5.6-0.3,11.2-0.7,16.8  c-0.1,2-2.5,3.1-5.6,2.6c-2-0.3-4.1-0.8-3.9-3.7c0.4-4,0.6-8,0.3-12.2c-3.6,4.3-7.1,8.8-11,12.9c-15.9,16.6-31.8,33-47.8,49.4  c-2.6,2.7-6.8,2.6-10.1-0.4c-6.7-6-13.4-12-19.8-18.3c-5.1-4.8-5.1-4.8-10.1,0.4c-19.1,19.9-38.4,39.6-57.7,59.3  c-1.2,1.2-2.8,2.2-4.4,2.6c-3.2,0.9-5.7-1.6-4.8-4.8c0.5-1.8,1.6-3.5,2.9-4.9c14.3-14.4,28.7-28.8,43.1-43.1  c5.9-5.9,11.6-11.9,17.7-17.5c5.9-5.4,10.1-5.2,15.4,0.8c4.9,5.6,9.3,11.6,13.9,17.4C105.3,75.9,106.8,77.6,107.9,78.9z"></path>
<path d="M183,85.5c-0.6,8.1-1.5,19.5-2.5,30.8c-0.1,1.2-0.6,2.4-1.1,3.6c-0.2,0.5-0.9,0.7-1.4,1.1c-0.3-0.5-0.9-1-0.9-1.6  c-1.6-18.5-3.1-36.9-4.6-55.4c-0.4-4.2-0.8-8.5-1.1-12.7c-0.2-3,1.4-4.8,4.2-5.1c2.8-0.2,4.9,1.4,5.1,4.3  C181.4,61.1,182.1,71.7,183,85.5z"></path>
<path d="M164.2,81.1c-0.5,10-1,20.1-1.5,30.1c-0.1,2.8,0.2,5.6,0.1,8.4c0,0.9-0.5,1.8-0.8,2.7c-0.7-0.6-1.7-1.1-2.1-1.9  c-3-5.6-3.9-11.7-4.3-17.9c-0.8-13.5-1.4-27-2-40.6c-0.2-3.4,1.4-5.1,4.7-5.1c3,0,4.8,1.7,4.8,4.9c0,6.5,0,13,0,19.4  C163.5,81,163.9,81.1,164.2,81.1z"></path>
<path d="M147.6,104c-0.7,5.5-1.3,11.1-2.1,16.6c-0.1,0.9-1,1.6-1.5,2.4c-0.6-0.7-1.5-1.4-1.7-2.2c-2-10.8-3.9-21.6-5.8-32.4  c-0.4-2.3-0.6-4.6-1-6.9c-0.4-2.7,0.7-4,3.8-4.5c3.5-0.6,5.1,0.1,5.5,2.8C145.8,87.8,146.7,95.9,147.6,104z"></path>
<path d="M84.7,105.1c-0.5,4.2-1,9.2-1.7,14.2c-0.1,0.8-0.9,1.5-1.3,2.2c-0.6-0.6-1.4-1.1-1.7-1.9c-3.3-8.3-4.8-16.9-5.6-25.7  c-0.3-3.6-0.8-7.1-0.8-10.7c0-1,0.9-2.6,1.8-3.1c4.4-2.2,7.4-0.3,7.8,4.4C83.5,91.2,84.1,97.8,84.7,105.1z"></path>
<path d="M104,100.4c-0.9,6.2-1.6,12.4-2.6,18.6c-0.1,0.9-1.1,1.8-1.7,2.7c-0.7-0.8-1.7-1.4-2-2.4c-3.8-9-4.1-18.6-4.3-28.1  c0-0.7,1-2,1.7-2.1c1.9-0.4,3.8-0.5,5.7-0.2c0.7,0.1,1.8,1.4,1.9,2.3c0.4,3.1,0.4,6.2,0.6,9.3C103.5,100.4,103.8,100.4,104,100.4z"></path>
<path d="M122.7,103.5c-0.6,5.3-1.3,10.7-2,16c-0.1,0.8-0.8,1.9-1.4,2.1c-0.6,0.1-1.7-0.6-2.1-1.3c-4.8-7.5-4.9-15.9-4.5-24.3  c0-0.5,0.8-1.2,1.4-1.5c0.7-0.3,1.5-0.3,2.3-0.4c5-0.3,5.6,0.3,5.7,5.3c0,1.4,0,2.7,0,4.1C122.3,103.4,122.5,103.5,122.7,103.5z"></path>
<path d="M66.2,106.4c-0.8,4.2-1.5,8.5-2.4,12.7c-0.2,0.7-1,1.6-1.7,1.8c-0.4,0.1-1.4-0.7-1.8-1.4c-3.9-7-4.4-14.7-4.7-22.4  c0-0.6,0.9-1.6,1.5-1.7c2.1-0.4,4.2-0.6,6.3-0.5c0.6,0,1.5,1.1,1.6,1.8c0.4,3.1,0.6,6.3,0.8,9.5C65.9,106.4,66.1,106.4,66.2,106.4z"></path>
<path d="M38.1,112.2c3-0.4,5.9-0.8,8.9-1.2c1.2,3.8,1.4,7.1-0.9,10.2c-1.3,1.8-2.7,1.9-4.4,0.5C38.8,119.4,38.1,116.3,38.1,112.2z"></path>
</svg>